  0
SECTION
  2
HEADER
  9
$ACADVER
  1
AC1014
  9
$ACADMAINTVER
 70
     9
  9
$DWGCODEPAGE
  3
ANSI_1252
  9
$INSBASE
 10
0.0
 20
0.0
 30
0.0
  9
$EXTMIN
 10
1.000000000000000E+20
 20
1.000000000000000E+20
 30
1.000000000000000E+20
  9
$EXTMAX
 10
-1.000000000000000E+20
 20
-1.000000000000000E+20
 30
-1.000000000000000E+20
  9
$LIMMIN
 10
0.0
 20
0.0
  9
$LIMMAX
 10
420.0
 20
297.0
  9
$ORTHOMODE
 70
     0
  9
$REGENMODE
 70
     1
  9
$FILLMODE
 70
     1
  9
$QTEXTMODE
 70
     0
  9
$MIRRTEXT
 70
     1
  9
$DRAGMODE
 70
     2
  9
$LTSCALE
 40
1.0
  9
$OSMODE
 70
    37
  9
$ATTMODE
 70
     1
  9
$TEXTSIZE
 40
2.5
  9
$TRACEWID
 40
1.0
  9
$TEXTSTYLE
  7
STANDARD
  9
$CLAYER
  8
0
  9
$CELTYPE
  6
BYLAYER
  9
$CECOLOR
 62
   256
  9
$CELTSCALE
 40
1.0
  9
$DELOBJ
 70
     1
  9
$DISPSILH
 70
     0
  9
$DIMSCALE
 40
1.0
  9
$DIMASZ
 40
2.5
  9
$DIMEXO
 40
0.625
  9
$DIMDLI
 40
3.75
  9
$DIMRND
 40
0.0
  9
$DIMDLE
 40
0.0
  9
$DIMEXE
 40
1.25
  9
$DIMTP
 40
0.0
  9
$DIMTM
 40
0.0
  9
$DIMTXT
 40
2.5
  9
$DIMCEN
 40
2.5
  9
$DIMTSZ
 40
0.0
  9
$DIMTOL
 70
     0
  9
$DIMLIM
 70
     0
  9
$DIMTIH
 70
     0
  9
$DIMTOH
 70
     0
  9
$DIMSE1
 70
     0
  9
$DIMSE2
 70
     0
  9
$DIMTAD
 70
     1
  9
$DIMZIN
 70
     8
  9
$DIMBLK
  1

  9
$DIMASO
 70
     1
  9
$DIMSHO
 70
     1
  9
$DIMPOST
  1

  9
$DIMAPOST
  1

  9
$DIMALT
 70
     0
  9
$DIMALTD
 70
     3
  9
$DIMALTF
 40
0.03937007874016
  9
$DIMLFAC
 40
1.0
  9
$DIMTOFL
 70
     1
  9
$DIMTVP
 40
0.0
  9
$DIMTIX
 70
     0
  9
$DIMSOXD
 70
     0
  9
$DIMSAH
 70
     0
  9
$DIMBLK1
  1

  9
$DIMBLK2
  1

  9
$DIMSTYLE
  2
ISO-25
  9
$DIMCLRD
 70
     0
  9
$DIMCLRE
 70
     0
  9
$DIMCLRT
 70
     0
  9
$DIMTFAC
 40
1.0
  9
$DIMGAP
 40
0.625
  9
$DIMJUST
 70
     0
  9
$DIMSD1
 70
     0
  9
$DIMSD2
 70
     0
  9
$DIMTOLJ
 70
     0
  9
$DIMTZIN
 70
     8
  9
$DIMALTZ
 70
     0
  9
$DIMALTTZ
 70
     0
  9
$DIMFIT
 70
     3
  9
$DIMUPT
 70
     0
  9
$DIMUNIT
 70
     2
  9
$DIMDEC
 70
     2
  9
$DIMTDEC
 70
     2
  9
$DIMALTU
 70
     2
  9
$DIMALTTD
 70
     3
  9
$DIMTXSTY
  7
STANDARD
  9
$DIMAUNIT
 70
     0
  9
$LUNITS
 70
     2
  9
$LUPREC
 70
     4
  9
$SKETCHINC
 40
1.0
  9
$FILLETRAD
 40
10.0
  9
$AUNITS
 70
     0
  9
$AUPREC
 70
     0
  9
$MENU
  1
.
  9
$ELEVATION
 40
0.0
  9
$PELEVATION
 40
0.0
  9
$THICKNESS
 40
0.0
  9
$LIMCHECK
 70
     0
  9
$CHAMFERA
 40
0.0
  9
$CHAMFERB
 40
0.0
  9
$CHAMFERC
 40
0.0
  9
$CHAMFERD
 40
0.0
  9
$SKPOLY
 70
     0
  9
$TDCREATE
 40
2460665.103352407
  9
$TDUPDATE
 40
2460665.103352419
  9
$TDINDWG
 40
0.0000000116
  9
$TDUSRTIMER
 40
0.0000000116
  9
$USRTIMER
 70
     1
  9
$ANGBASE
 50
0.0
  9
$ANGDIR
 70
     0
  9
$PDMODE
 70
     0
  9
$PDSIZE
 40
0.0
  9
$PLINEWID
 40
0.0
  9
$COORDS
 70
     1
  9
$SPLFRAME
 70
     0
  9
$SPLINETYPE
 70
     6
  9
$SPLINESEGS
 70
     8
  9
$ATTDIA
 70
     0
  9
$ATTREQ
 70
     1
  9
$HANDLING
 70
     1
  9
$HANDSEED
  5
10000231
  9
$SURFTAB1
 70
     6
  9
$SURFTAB2
 70
     6
  9
$SURFTYPE
 70
     6
  9
$SURFU
 70
     6
  9
$SURFV
 70
     6
  9
$UCSNAME
  2

  9
$UCSORG
 10
0.0
 20
0.0
 30
0.0
  9
$UCSXDIR
 10
1.0
 20
0.0
 30
0.0
  9
$UCSYDIR
 10
0.0
 20
1.0
 30
0.0
  9
$PUCSNAME
  2

  9
$PUCSORG
 10
0.0
 20
0.0
 30
0.0
  9
$PUCSXDIR
 10
1.0
 20
0.0
 30
0.0
  9
$PUCSYDIR
 10
0.0
 20
1.0
 30
0.0
  9
$USERI1
 70
     0
  9
$USERI2
 70
     0
  9
$USERI3
 70
     0
  9
$USERI4
 70
     0
  9
$USERI5
 70
     0
  9
$USERR1
 40
0.0
  9
$USERR2
 40
0.0
  9
$USERR3
 40
0.0
  9
$USERR4
 40
0.0
  9
$USERR5
 40
0.0
  9
$WORLDVIEW
 70
     1
  9
$SHADEDGE
 70
     3
  9
$SHADEDIF
 70
    70
  9
$TILEMODE
 70
     1
  9
$MAXACTVP
 70
    64
  9
$PINSBASE
 10
0.0
 20
0.0
 30
0.0
  9
$PLIMCHECK
 70
     0
  9
$PEXTMIN
 10
1.000000000000000E+20
 20
1.000000000000000E+20
 30
1.000000000000000E+20
  9
$PEXTMAX
 10
-1.000000000000000E+20
 20
-1.000000000000000E+20
 30
-1.000000000000000E+20
  9
$PLIMMIN
 10
0.0
 20
0.0
  9
$PLIMMAX
 10
420.0
 20
297.0
  9
$UNITMODE
 70
     0
  9
$VISRETAIN
 70
     1
  9
$PLINEGEN
 70
     0
  9
$PSLTSCALE
 70
     1
  9
$TREEDEPTH
 70
  3020
  9
$PICKSTYLE
 70
     1
  9
$CMLSTYLE
  2
STANDARD
  9
$CMLJUST
 70
     0
  9
$CMLSCALE
 40
20.0
  9
$PROXYGRAPHICS
 70
     1
  9
$MEASUREMENT
 70
     1
  0
ENDSEC
  0
SECTION
  2
CLASSES
  0
CLASS
  1
ACDBDICTIONARYWDFLT
  2
AcDbDictionaryWithDefault
  3
ObjectDBX Classes
 90
        0
280
     0
281
     0
  0
CLASS
  1
VISUALSTYLE
  2
AcDbVisualStyle
  3
ObjectDBX Classes
 90
     4095
280
     0
281
     0
  0
CLASS
  1
MATERIAL
  2
AcDbMaterial
  3
ObjectDBX Classes
 90
     1153
280
     0
281
     0
  0
CLASS
  1
SCALE
  2
AcDbScale
  3
ObjectDBX Classes
 90
     1153
280
     0
281
     0
  0
CLASS
  1
TABLESTYLE
  2
AcDbTableStyle
  3
ObjectDBX Classes
 90
     4095
280
     0
281
     0
  0
CLASS
  1
MLEADERSTYLE
  2
AcDbMLeaderStyle
  3
ACDB_MLEADERSTYLE_CLASS
 90
     4095
280
     0
281
     0
  0
CLASS
  1
SUN
  2
AcDbSun
  3
SCENEOE
 90
     1153
280
     0
281
     0
  0
CLASS
  1
SORTENTSTABLE
  2
AcDbSortentsTable
  3
ObjectDBX Classes
 90
        0
280
     0
281
     0
  0
CLASS
  1
DICTIONARYVAR
  2
AcDbDictionaryVar
  3
ObjectDBX Classes
 90
        0
280
     0
281
     0
  0
CLASS
  1
XRECORD
  2
AcDbXrecord
  3
ObjectDBX Classes
 90
        0
280
     0
281
     0
  0
CLASS
  1
LWPOLYLINE
  2
AcDbPolyline
  3
ObjectDBX Classes
 90
        0
280
     0
281
     1
  0
CLASS
  1
HATCH
  2
AcDbHatch
  3
ObjectDBX Classes
 90
        0
280
     0
281
     1
  0
CLASS
  1
ACDBPLACEHOLDER
  2
AcDbPlaceHolder
  3
ObjectDBX Classes
 90
        0
280
     0
281
     0
  0
CLASS
  1
LAYOUT
  2
AcDbLayout
  3
ObjectDBX Classes
 90
        0
280
     0
281
     0
  0
ENDSEC
  0
SECTION
  2
TABLES
  0
TABLE
  2
VPORT
  5
8
102
{ACAD_XDICTIONARY
360
10000226
102
}
330
0
100
AcDbSymbolTable
 70
     1
  0
VPORT
  5
29
330
8
100
AcDbSymbolTableRecord
100
AcDbViewportTableRecord
  2
*ACTIVE
 70
     0
 10
0.0
 20
0.0
 11
1.0
 21
1.0
 12
344.1869158878504
 22
148.5
 13
0.0
 23
0.0
 14
10.0
 24
10.0
 15
10.0
 25
10.0
 16
0.0
 26
0.0
 36
1.0
 17
0.0
 27
0.0
 37
0.0
 40
297.0
 41
1.972972972850329
 42
50.0
 43
0.0
 44
0.0
 50
0.0
 51
0.0
 71
     0
 72
   100
 73
     1
 74
     3
 75
     0
 76
     0
 77
     0
 78
     0
  0
ENDTAB
  0
TABLE
  2
LTYPE
  5
5
330
0
100
AcDbSymbolTable
 70
     7
  0
LTYPE
  5
14
330
5
100
AcDbSymbolTableRecord
100
AcDbLinetypeTableRecord
  2
BYBLOCK
 70
     0
  3

 72
    65
 73
     0
 40
0.0
  0
LTYPE
  5
15
330
5
100
AcDbSymbolTableRecord
100
AcDbLinetypeTableRecord
  2
BYLAYER
 70
     0
  3

 72
    65
 73
     0
 40
0.0
  0
LTYPE
  5
16
330
5
100
AcDbSymbolTableRecord
100
AcDbLinetypeTableRecord
  2
CONTINUOUS
 70
     0
  3
Solid line
 72
    65
 73
     0
 40
0.0
  0
LTYPE
  5
10000024
330
5
100
AcDbSymbolTableRecord
100
AcDbLinetypeTableRecord
  2
ONS_PHANTOM
 70
     0
  3
Onshape Phantom line ______ __ __ ______
 72
    65
 73
     6
 40
0.4999999999999999
 49
0.25
 74
     0
 49
-0.05
 74
     0
 49
0.05
 74
     0
 49
-0.05
 74
     0
 49
0.05
 74
     0
 49
-0.05
 74
     0
  0
LTYPE
  5
10000025
330
5
100
AcDbSymbolTableRecord
100
AcDbLinetypeTableRecord
  2
CENTER
 70
     0
  3
Center line ____ _ ____ _ ____ _
 72
    65
 73
     4
 40
0.7874015748031495
 49
0.4921259842519685
 74
     0
 49
-0.0984251968503937
 74
     0
 49
0.0984251968503937
 74
     0
 49
-0.0984251968503937
 74
     0
  0
LTYPE
  5
10000026
330
5
100
AcDbSymbolTableRecord
100
AcDbLinetypeTableRecord
  2
DASHED
 70
     0
  3
Dashed line __ __ __ __ __
 72
    65
 73
     2
 40
0.75
 49
0.5
 74
     0
 49
-0.25
 74
     0
  0
LTYPE
  5
10000027
330
5
100
AcDbSymbolTableRecord
100
AcDbLinetypeTableRecord
  2
ONS_DASHDOT
 70
     0
  3
Onshape Dashed with Dot _ . ____ . ____
 72
    65
 73
     4
 40
0.71
 49
0.5
 74
     0
 49
-0.1
 74
     0
 49
0.01
 74
     0
 49
-0.1
 74
     0
  0
LTYPE
  5
10000028
330
5
100
AcDbSymbolTableRecord
100
AcDbLinetypeTableRecord
  2
ONS_DOTTED
 70
     0
  3
Onshape Dotted line . . . . . . .
 72
    65
 73
     2
 40
0.11
 49
0.01
 74
     0
 49
-0.1
 74
     0
  0
LTYPE
  5
10000029
330
5
100
AcDbSymbolTableRecord
100
AcDbLinetypeTableRecord
  2
HIDDEN
 70
     0
  3
Hidden line ____ ____ ____ ____ 
 72
    65
 73
     2
 40
0.15
 49
0.1
 74
     0
 49
-0.05
 74
     0
  0
ENDTAB
  0
TABLE
  2
LAYER
  5
2
330
0
100
AcDbSymbolTable
 70
    40
  0
LAYER
  5
10
330
2
100
AcDbSymbolTableRecord
100
AcDbLayerTableRecord
  2
0
 70
     0
 62
     7
  6
CONTINUOUS
  0
LAYER
  5
1000002A
330
2
100
AcDbSymbolTableRecord
100
AcDbLayerTableRecord
  2
SECTION_CUTTING_LINE
 70
     0
 62
     7
  6
ONS_DASHDOT
  0
LAYER
  5
1000002B
330
2
100
AcDbSymbolTableRecord
100
AcDbLayerTableRecord
  2
DETAIL_VIEW_BORDER
 70
     0
 62
     7
  6
CONTINUOUS
  0
LAYER
  5
1000002C
330
2
100
AcDbSymbolTableRecord
100
AcDbLayerTableRecord
  2
DETAIL_VIEW_PARENT_BORDER
 70
     0
 62
     7
  6
ONS_PHANTOM
  0
LAYER
  5
1000002D
330
2
100
AcDbSymbolTableRecord
100
AcDbLayerTableRecord
  2
TEXT
 70
     0
 62
     7
  6
CONTINUOUS
  0
LAYER
  5
1000002E
330
2
100
AcDbSymbolTableRecord
100
AcDbLayerTableRecord
  2
SKETCHED_GEOMETRY
 70
     0
 62
    -7
  6
CONTINUOUS
  0
LAYER
  5
1000002F
330
2
100
AcDbSymbolTableRecord
100
AcDbLayerTableRecord
  2
VIRTUAL_SHARPS
 70
     0
 62
    -7
  6
CONTINUOUS
  0
LAYER
  5
10000030
330
2
100
AcDbSymbolTableRecord
100
AcDbLayerTableRecord
  2
CENTERLINES
 70
     0
 62
    -7
  6
CENTER
  0
LAYER
  5
10000031
330
2
100
AcDbSymbolTableRecord
100
AcDbLayerTableRecord
  2
CENTERMARKS
 70
     0
 62
    -7
  6
CONTINUOUS
  0
LAYER
  5
10000032
330
2
100
AcDbSymbolTableRecord
100
AcDbLayerTableRecord
  2
TABLES
 70
     0
 62
     7
  6
CONTINUOUS
  0
LAYER
  5
10000033
330
2
100
AcDbSymbolTableRecord
100
AcDbLayerTableRecord
  2
IMAGES
 70
     0
 62
    -7
  6
CONTINUOUS
  0
LAYER
  5
10000034
330
2
100
AcDbSymbolTableRecord
100
AcDbLayerTableRecord
  2
ANNOTATION_LINES
 70
     0
 62
    -7
  6
CONTINUOUS
  0
LAYER
  5
10000035
330
2
100
AcDbSymbolTableRecord
100
AcDbLayerTableRecord
  2
ANNOTATION_TEXT
 70
     0
 62
    -7
  6
CONTINUOUS
  0
LAYER
  5
10000036
330
2
100
AcDbSymbolTableRecord
100
AcDbLayerTableRecord
  2
SIDE_THREAD_SYMBOLS
 70
     0
 62
     7
  6
CONTINUOUS
  0
LAYER
  5
10000037
330
2
100
AcDbSymbolTableRecord
100
AcDbLayerTableRecord
  2
SIDE_THREAD_SYMBOLS_HIDDEN
 70
     0
 62
    -7
  6
HIDDEN
  0
LAYER
  5
10000038
330
2
100
AcDbSymbolTableRecord
100
AcDbLayerTableRecord
  2
SURFACE_THREAD_SYMBOLS
 70
     0
 62
     7
  6
CONTINUOUS
  0
LAYER
  5
10000039
330
2
100
AcDbSymbolTableRecord
100
AcDbLayerTableRecord
  2
SURFACE_THREAD_SYMBOLS_ON_
 70
     0
 62
     7
  6
CONTINUOUS
  0
LAYER
  5
1000003A
330
2
100
AcDbSymbolTableRecord
100
AcDbLayerTableRecord
  2
SURFACE_THREAD_SYMBOLS_HID
 70
     0
 62
    -7
  6
HIDDEN
  0
LAYER
  5
1000003B
330
2
100
AcDbSymbolTableRecord
100
AcDbLayerTableRecord
  2
BLIND_THREAD_SYMBOLS
 70
     0
 62
     7
  6
CONTINUOUS
  0
LAYER
  5
1000003C
330
2
100
AcDbSymbolTableRecord
100
AcDbLayerTableRecord
  2
BLIND_THREAD_SYMBOLS_HIDDE
 70
     0
 62
    -7
  6
HIDDEN
  0
LAYER
  5
1000003D
330
2
100
AcDbSymbolTableRecord
100
AcDbLayerTableRecord
  2
EXPLODE_LINES
 70
     0
 62
     7
  6
ONS_PHANTOM
  0
LAYER
  5
1000003E
330
2
100
AcDbSymbolTableRecord
100
AcDbLayerTableRecord
  2
HIDDEN_EXPLODE_LINES
 70
     0
 62
    -7
  6
ONS_PHANTOM
  0
LAYER
  5
1000003F
330
2
100
AcDbSymbolTableRecord
100
AcDbLayerTableRecord
  2
BREAK_LINES
 70
     0
 62
    -7
  6
CONTINUOUS
  0
LAYER
  5
10000040
330
2
100
AcDbSymbolTableRecord
100
AcDbLayerTableRecord
  2
SHEETMETAL_BEND_LINES_UP
 70
     0
 62
     7
  6
CENTER
  0
LAYER
  5
10000041
330
2
100
AcDbSymbolTableRecord
100
AcDbLayerTableRecord
  2
SHEETMETAL_BEND_LINES_DOWN
 70
     0
 62
     7
  6
CENTER
  0
LAYER
  5
10000042
330
2
100
AcDbSymbolTableRecord
100
AcDbLayerTableRecord
  2
SHEETMETAL_BEND_TANGENT_LI
 70
     0
 62
     7
  6
CONTINUOUS
  0
LAYER
  5
10000043
330
2
100
AcDbSymbolTableRecord
100
AcDbLayerTableRecord
  2
SHEETMETAL_CUT_LINES
 70
     0
 62
     7
  6
CONTINUOUS
  0
LAYER
  5
10000044
330
2
100
AcDbSymbolTableRecord
100
AcDbLayerTableRecord
  2
REGION_ASSOC_POINTS
 70
     0
 62
    -7
  6
CONTINUOUS
  0
LAYER
  5
10000045
330
2
100
AcDbSymbolTableRecord
100
AcDbLayerTableRecord
  2
PATTERN_CENTERLINES
 70
     1
 62
    -7
  6
CENTER
  0
LAYER
  5
10000046
330
2
100
AcDbSymbolTableRecord
100
AcDbLayerTableRecord
  2
HIDDEN
 70
     0
 62
    -7
  6
HIDDEN
  0
LAYER
  5
10000047
330
2
100
AcDbSymbolTableRecord
100
AcDbLayerTableRecord
  2
VISIBLE
 70
     0
 62
     7
  6
CONTINUOUS
  0
LAYER
  5
10000048
330
2
100
AcDbSymbolTableRecord
100
AcDbLayerTableRecord
  2
MODELSKETCH_VISIBLE
 70
     0
 62
     7
  6
CONTINUOUS
  0
LAYER
  5
10000049
330
2
100
AcDbSymbolTableRecord
100
AcDbLayerTableRecord
  2
MODELSKETCH_POINT
 70
     0
 62
     7
  6
CONTINUOUS
  0
LAYER
  5
1000004A
330
2
100
AcDbSymbolTableRecord
100
AcDbLayerTableRecord
  2
MODELSKETCH_CONSTRUCTION
 70
     0
 62
    -7
  6
CENTER
  0
LAYER
  5
1000004B
330
2
100
AcDbSymbolTableRecord
100
AcDbLayerTableRecord
  2
HIDDEN_BASE_VIEW
 70
     0
 62
     7
  6
CONTINUOUS
  0
LAYER
  5
1000004C
330
2
100
AcDbSymbolTableRecord
100
AcDbLayerTableRecord
  2
TANGENT_LINES
 70
     0
 62
    -7
  6
CONTINUOUS
  0
LAYER
  5
1000004D
330
2
100
AcDbSymbolTableRecord
100
AcDbLayerTableRecord
  2
TANGENT_HIDDEN
 70
     0
 62
    -7
  6
HIDDEN
  0
LAYER
  5
1000004E
330
2
100
AcDbSymbolTableRecord
100
AcDbLayerTableRecord
  2
INVISIBLE_LINES
 70
     0
 62
    -7
  6
CONTINUOUS
  0
LAYER
  5
1000004F
330
2
100
AcDbSymbolTableRecord
100
AcDbLayerTableRecord
  2
VIEW_HATCHES
 70
     0
 62
    -7
  6
CONTINUOUS
  0
LAYER
  5
10000050
330
2
100
AcDbSymbolTableRecord
100
AcDbLayerTableRecord
  2
SECTION_JOG_LINES
 70
     0
 62
    -7
  6
CONTINUOUS
  0
ENDTAB
  0
TABLE
  2
STYLE
  5
3
330
0
100
AcDbSymbolTable
 70
     2
  0
STYLE
  5
11
330
3
100
AcDbSymbolTableRecord
100
AcDbTextStyleTableRecord
  2
STANDARD
 70
     0
 40
0.0
 41
1.0
 50
0.0
 71
     0
 42
2.5
  3
txt
  4

  0
STYLE
  5
10000004
330
3
100
AcDbSymbolTableRecord
100
AcDbTextStyleTableRecord
  2
TTFSTYLE
 70
     0
 40
0.0
 41
1.0
 50
0.0
 71
     0
 42
2.5
  3
Verdana.ttf
  4

1001
ACAD
1000
Verdana
1071
       34
  0
ENDTAB
  0
TABLE
  2
VIEW
  5
6
330
0
100
AcDbSymbolTable
 70
     0
  0
ENDTAB
  0
TABLE
  2
UCS
  5
7
330
0
100
AcDbSymbolTable
 70
     0
  0
ENDTAB
  0
TABLE
  2
APPID
  5
9
330
0
100
AcDbSymbolTable
 70
     2
  0
APPID
  5
12
330
9
100
AcDbSymbolTableRecord
100
AcDbRegAppTableRecord
  2
ACAD
 70
     0
  0
APPID
  5
10000230
330
9
100
AcDbSymbolTableRecord
100
AcDbRegAppTableRecord
  2
ACAD_MLEADERVER
 70
     0
  0
ENDTAB
  0
TABLE
  2
DIMSTYLE
  5
A
330
0
100
AcDbSymbolTable
 70
     1
  0
DIMSTYLE
105
27
330
A
100
AcDbSymbolTableRecord
100
AcDbDimStyleTableRecord
  2
ISO-25
 70
     0
  3

  4

  5

  6

  7

 40
1.0
 41
2.5
 42
0.625
 43
3.75
 44
1.25
 45
0.0
 46
0.0
 47
0.0
 48
0.0
140
2.5
141
2.5
142
0.0
143
0.03937007874016
144
1.0
145
0.0
146
1.0
147
0.625
 71
     0
 72
     0
 73
     0
 74
     0
 75
     0
 76
     0
 77
     1
 78
     8
170
     0
171
     3
172
     1
173
     0
174
     0
175
     0
176
     0
177
     0
178
     0
270
     2
271
     2
272
     2
273
     2
274
     3
340
11
275
     0
280
     0
281
     0
282
     0
283
     0
284
     8
285
     0
286
     0
287
     3
288
     0
  0
ENDTAB
  0
TABLE
  2
BLOCK_RECORD
  5
1
330
0
100
AcDbSymbolTable
 70
     0
  0
BLOCK_RECORD
  5
1F
102
{ACAD_XDICTIONARY
360
100001F7
102
}
330
1
100
AcDbSymbolTableRecord
100
AcDbBlockTableRecord
  2
*MODEL_SPACE
  0
BLOCK_RECORD
  5
1B
330
1
100
AcDbSymbolTableRecord
100
AcDbBlockTableRecord
  2
*PAPER_SPACE
  0
ENDTAB
  0
ENDSEC
  0
SECTION
  2
BLOCKS
  0
BLOCK
  5
20
330
1F
100
AcDbEntity
  8
0
100
AcDbBlockBegin
  2
*MODEL_SPACE
 70
     0
 10
0.0
 20
0.0
 30
0.0
  3
*MODEL_SPACE
  1

  0
ENDBLK
  5
21
330
1F
100
AcDbEntity
  8
0
100
AcDbBlockEnd
  0
BLOCK
  5
1C
330
1B
100
AcDbEntity
 67
     1
  8
0
100
AcDbBlockBegin
  2
*PAPER_SPACE
 70
     0
 10
0.0
 20
0.0
 30
0.0
  3
*PAPER_SPACE
  1

  0
ENDBLK
  5
1D
330
1B
100
AcDbEntity
 67
     1
  8
0
100
AcDbBlockEnd
  0
ENDSEC
  0
SECTION
  2
ENTITIES
  0
LINE
  5
10000051
102
{ACAD_XDICTIONARY
360
10000052
102
}
330
1F
100
AcDbEntity
  8
VISIBLE
100
AcDbLine
 10
-223.412337758017
 20
-18.63343077898026
 30
0.0
 11
-223.4123377580171
 21
196.3665692210198
 31
0.0
  0
LINE
  5
10000054
102
{ACAD_XDICTIONARY
360
10000055
102
}
330
1F
100
AcDbEntity
  8
VISIBLE
100
AcDbLine
 10
-223.412337758017
 20
-18.63343077898026
 30
0.0
 11
132.187662241983
 21
-18.63343077898021
 31
0.0
  0
LINE
  5
10000057
102
{ACAD_XDICTIONARY
360
10000058
102
}
330
1F
100
AcDbEntity
  8
VISIBLE
100
AcDbLine
 10
132.187662241983
 20
-18.63343077898021
 30
0.0
 11
132.1876622419829
 21
196.3665692210197
 31
0.0
  0
LINE
  5
1000005A
102
{ACAD_XDICTIONARY
360
1000005B
102
}
330
1F
100
AcDbEntity
  8
VISIBLE
100
AcDbLine
 10
-223.4123377580171
 20
196.3665692210198
 30
0.0
 11
132.1876622419829
 21
196.3665692210197
 31
0.0
  0
LINE
  5
1000005D
102
{ACAD_XDICTIONARY
360
1000005E
102
}
330
1F
100
AcDbEntity
  8
VISIBLE
100
AcDbLine
 10
-189.7599940080171
 20
17.74352234601982
 30
0.0
 11
-189.7599940080171
 21
16.59443380435315
 31
0.0
  0
LINE
  5
10000060
102
{ACAD_XDICTIONARY
360
10000061
102
}
330
1F
100
AcDbEntity
  8
VISIBLE
100
AcDbLine
 10
-189.7599940080171
 20
16.59443380435315
 30
0.0
 11
-197.6343429663503
 21
16.59443380435315
 31
0.0
  0
SPLINE
  5
10000063
102
{ACAD_XDICTIONARY
360
10000064
102
}
330
1F
100
AcDbEntity
  8
VISIBLE
100
AcDbSpline
210
0.0
220
0.0
230
1.0
 70
     8
 71
     2
 72
     6
 73
     3
 74
     0
 42
0.000000001
 43
0.00000001
 40
0.0
 40
0.0
 40
0.0
 40
1.0
 40
1.0
 40
1.0
 10
-197.6343429663503
 20
16.59443380435315
 30
0.0
 10
-197.552962758017
 20
12.77932963768649
 30
0.0
 10
-194.134994008017
 20
12.77932963768649
 30
0.0
  0
SPLINE
  5
10000066
102
{ACAD_XDICTIONARY
360
10000067
102
}
330
1F
100
AcDbEntity
  8
VISIBLE
100
AcDbSpline
210
0.0
220
0.0
230
1.0
 70
     8
 71
     2
 72
     6
 73
     3
 74
     0
 42
0.000000001
 43
0.00000001
 40
0.0
 40
0.0
 40
0.0
 40
1.0
 40
1.0
 40
1.0
 10
-194.134994008017
 20
12.77932963768649
 30
0.0
 10
-192.1493169246837
 20
12.77932963768649
 30
0.0
 10
-190.3687179663504
 20
13.55406922101982
 30
0.0
  0
LINE
  5
10000069
102
{ACAD_XDICTIONARY
360
1000006A
102
}
330
1F
100
AcDbEntity
  8
VISIBLE
100
AcDbLine
 10
-190.3687179663504
 20
13.55406922101982
 30
0.0
 11
-190.3687179663504
 21
11.92646505435316
 31
0.0
  0
SPLINE
  5
1000006C
102
{ACAD_XDICTIONARY
360
1000006D
102
}
330
1F
100
AcDbEntity
  8
VISIBLE
100
AcDbSpline
210
0.0
220
0.0
230
1.0
 70
     8
 71
     2
 72
     6
 73
     3
 74
     0
 42
0.000000001
 43
0.00000001
 40
0.0
 40
0.0
 40
0.0
 40
1.0
 40
1.0
 40
1.0
 10
-190.3687179663504
 20
11.92646505435316
 30
0.0
 10
-192.0581710913504
 20
11.16149109601983
 30
0.0
 10
-194.0731450496837
 20
11.16149109601983
 30
0.0
  0
SPLINE
  5
1000006F
102
{ACAD_XDICTIONARY
360
10000070
102
}
330
1F
100
AcDbEntity
  8
VISIBLE
100
AcDbSpline
210
0.0
220
0.0
230
1.0
 70
     8
 71
     2
 72
     6
 73
     3
 74
     0
 42
0.000000001
 43
0.00000001
 40
0.0
 40
0.0
 40
0.0
 40
1.0
 40
1.0
 40
1.0
 10
-194.0731450496837
 20
11.16149109601983
 30
0.0
 10
-196.566634633017
 20
11.16149109601983
 30
0.0
 10
-198.060775258017
 20
12.68330099185316
 30
0.0
  0
SPLINE
  5
10000072
102
{ACAD_XDICTIONARY
360
10000073
102
}
330
1F
100
AcDbEntity
  8
VISIBLE
100
AcDbSpline
210
0.0
220
0.0
230
1.0
 70
     8
 71
     2
 72
     6
 73
     3
 74
     0
 42
0.000000001
 43
0.00000001
 40
0.0
 40
0.0
 40
0.0
 40
1.0
 40
1.0
 40
1.0
 10
-198.060775258017
 20
12.68330099185316
 30
0.0
 10
-199.554915883017
 20
14.20511088768649
 30
0.0
 10
-199.554915883017
 20
16.87112651268648
 30
0.0
  0
SPLINE
  5
10000075
102
{ACAD_XDICTIONARY
360
10000076
102
}
330
1F
100
AcDbEntity
  8
VISIBLE
100
AcDbSpline
210
0.0
220
0.0
230
1.0
 70
     8
 71
     2
 72
     6
 73
     3
 74
     0
 42
0.000000001
 43
0.00000001
 40
0.0
 40
0.0
 40
0.0
 40
1.0
 40
1.0
 40
1.0
 10
-199.554915883017
 20
16.87112651268648
 30
0.0
 10
-199.554915883017
 20
19.57620463768648
 30
0.0
 10
-198.1763351538503
 20
21.15823588768647
 30
0.0
  0
SPLINE
  5
10000078
102
{ACAD_XDICTIONARY
360
10000079
102
}
330
1F
100
AcDbEntity
  8
VISIBLE
100
AcDbSpline
210
0.0
220
0.0
230
1.0
 70
     8
 71
     2
 72
     6
 73
     3
 74
     0
 42
0.000000001
 43
0.00000001
 40
0.0
 40
0.0
 40
0.0
 40
1.0
 40
1.0
 40
1.0
 10
-198.1763351538503
 20
21.15823588768647
 30
0.0
 10
-196.7977544246837
 20
22.74026713768647
 30
0.0
 10
-194.4898117163503
 20
22.74026713768647
 30
0.0
  0
SPLINE
  5
1000007B
102
{ACAD_XDICTIONARY
360
1000007C
102
}
330
1F
100
AcDbEntity
  8
VISIBLE
100
AcDbSpline
210
0.0
220
0.0
230
1.0
 70
     8
 71
     2
 72
     6
 73
     3
 74
     0
 42
0.000000001
 43
0.00000001
 40
0.0
 40
0.0
 40
0.0
 40
1.0
 40
1.0
 40
1.0
 10
-194.4898117163503
 20
22.74026713768647
 30
0.0
 10
-192.3348637996837
 20
22.74026713768647
 30
0.0
 10
-191.0474289038504
 20
21.37633484601981
 30
0.0
  0
SPLINE
  5
1000007E
102
{ACAD_XDICTIONARY
360
1000007F
102
}
330
1F
100
AcDbEntity
  8
VISIBLE
100
AcDbSpline
210
0.0
220
0.0
230
1.0
 70
     8
 71
     2
 72
     6
 73
     3
 74
     0
 42
0.000000001
 43
0.00000001
 40
0.0
 40
0.0
 40
0.0
 40
1.0
 40
1.0
 40
1.0
 10
-191.0474289038504
 20
21.37633484601981
 30
0.0
 10
-189.7599940080171
 20
20.01240255435314
 30
0.0
 10
-189.7599940080171
 20
17.74352234601982
 30
0.0
  0
SPLINE
  5
10000081
102
{ACAD_XDICTIONARY
360
10000082
102
}
330
1F
100
AcDbEntity
  8
VISIBLE
100
AcDbSpline
210
0.0
220
0.0
230
1.0
 70
     8
 71
     2
 72
     6
 73
     3
 74
     0
 42
0.000000001
 43
0.00000001
 40
0.0
 40
0.0
 40
0.0
 40
1.0
 40
1.0
 40
1.0
 10
-141.5373377580171
 20
23.21878276268647
 30
0.0
 10
-141.5373377580171
 20
21.15172547101981
 30
0.0
 10
-144.7730148413505
 20
19.26044942935314
 30
0.0
  0
LINE
  5
10000084
102
{ACAD_XDICTIONARY
360
10000085
102
}
330
1F
100
AcDbEntity
  8
VISIBLE
100
AcDbLine
 10
-144.7730148413505
 20
19.26044942935314
 30
0.0
 11
-141.9149419246838
 21
15.72203797101982
 31
0.0
  0
SPLINE
  5
10000087
102
{ACAD_XDICTIONARY
360
10000088
102
}
330
1F
100
AcDbEntity
  8
VISIBLE
100
AcDbSpline
210
0.0
220
0.0
230
1.0
 70
     8
 71
     2
 72
     6
 73
     3
 74
     0
 42
0.000000001
 43
0.00000001
 40
0.0
 40
0.0
 40
0.0
 40
1.0
 40
1.0
 40
1.0
 10
-141.9149419246838
 20
15.72203797101982
 30
0.0
 10
-141.1922856746838
 20
16.95250672101982
 30
0.0
 10
-140.8569992163505
 20
18.42711609601981
 30
0.0
  0
LINE
  5
1000008A
102
{ACAD_XDICTIONARY
360
1000008B
102
}
330
1F
100
AcDbEntity
  8
VISIBLE
100
AcDbLine
 10
-140.8569992163505
 20
18.42711609601981
 30
0.0
 11
-138.9852544246838
 21
18.42711609601981
 31
0.0
  0
SPLINE
  5
1000008D
102
{ACAD_XDICTIONARY
360
1000008E
102
}
330
1F
100
AcDbEntity
  8
VISIBLE
100
AcDbSpline
210
0.0
220
0.0
230
1.0
 70
     8
 71
     2
 72
     6
 73
     3
 74
     0
 42
0.000000001
 43
0.00000001
 40
0.0
 40
0.0
 40
0.0
 40
1.0
 40
1.0
 40
1.0
 10
-138.9852544246838
 20
18.42711609601981
 30
0.0
 10
-139.5223637996838
 20
16.04755880435315
 30
0.0
 10
-140.7951502580171
 20
14.32555359601982
 30
0.0
  0
LINE
  5
10000090
102
{ACAD_XDICTIONARY
360
10000091
102
}
330
1F
100
AcDbEntity
  8
VISIBLE
100
AcDbLine
 10
-140.7951502580171
 20
14.32555359601983
 30
0.0
 11
-138.4155929663505
 21
11.36656922101983
 31
0.0
  0
LINE
  5
10000093
102
{ACAD_XDICTIONARY
360
10000094
102
}
330
1F
100
AcDbEntity
  8
VISIBLE
100
AcDbLine
 10
-138.4155929663505
 20
11.36656922101983
 30
0.0
 11
-140.6226242163505
 21
11.36656922101982
 31
0.0
  0
LINE
  5
10000096
102
{ACAD_XDICTIONARY
360
10000097
102
}
330
1F
100
AcDbEntity
  8
VISIBLE
100
AcDbLine
 10
-140.6226242163505
 20
11.36656922101982
 30
0.0
 11
-141.9540044246838
 21
13.05602234601982
 31
0.0
  0
SPLINE
  5
10000099
102
{ACAD_XDICTIONARY
360
1000009A
102
}
330
1F
100
AcDbEntity
  8
VISIBLE
100
AcDbSpline
210
0.0
220
0.0
230
1.0
 70
     8
 71
     2
 72
     6
 73
     3
 74
     0
 42
0.000000001
 43
0.00000001
 40
0.0
 40
0.0
 40
0.0
 40
1.0
 40
1.0
 40
1.0
 10
-141.9540044246838
 20
13.05602234601982
 30
0.0
 10
-143.7248377580171
 20
11.16149109601983
 30
0.0
 10
-146.1467127580171
 20
11.16149109601983
 30
0.0
  0
SPLINE
  5
1000009C
102
{ACAD_XDICTIONARY
360
1000009D
102
}
330
1F
100
AcDbEntity
  8
VISIBLE
100
AcDbSpline
210
0.0
220
0.0
230
1.0
 70
     8
 71
     2
 72
     6
 73
     3
 74
     0
 42
0.000000001
 43
0.00000001
 40
0.0
 40
0.0
 40
0.0
 40
1.0
 40
1.0
 40
1.0
 10
-146.1467127580171
 20
11.16149109601983
 30
0.0
 10
-148.0672856746838
 20
11.16149109601983
 30
0.0
 10
-149.1708012996838
 20
12.25035828351982
 30
0.0
  0
SPLINE
  5
1000009F
102
{ACAD_XDICTIONARY
360
100000A0
102
}
330
1F
100
AcDbEntity
  8
VISIBLE
100
AcDbSpline
210
0.0
220
0.0
230
1.0
 70
     8
 71
     2
 72
     6
 73
     3
 74
     0
 42
0.000000001
 43
0.00000001
 40
0.0
 40
0.0
 40
0.0
 40
1.0
 40
1.0
 40
1.0
 10
-149.1708012996838
 20
12.25035828351982
 30
0.0
 10
-150.2743169246838
 20
13.33922547101982
 30
0.0
 10
-150.2743169246838
 20
15.24352234601982
 30
0.0
  0
SPLINE
  5
100000A2
102
{ACAD_XDICTIONARY
360
100000A3
102
}
330
1F
100
AcDbEntity
  8
VISIBLE
100
AcDbSpline
210
0.0
220
0.0
230
1.0
 70
     8
 71
     2
 72
     6
 73
     3
 74
     0
 42
0.000000001
 43
0.00000001
 40
0.0
 40
0.0
 40
0.0
 40
1.0
 40
1.0
 40
1.0
 10
-150.2743169246838
 20
15.24352234601982
 30
0.0
 10
-150.2743169246838
 20
16.57490255435315
 30
0.0
 10
-149.6281580705171
 20
17.56611349185314
 30
0.0
  0
SPLINE
  5
100000A5
102
{ACAD_XDICTIONARY
360
100000A6
102
}
330
1F
100
AcDbEntity
  8
VISIBLE
100
AcDbSpline
210
0.0
220
0.0
230
1.0
 70
     8
 71
     2
 72
     6
 73
     3
 74
     0
 42
0.000000001
 43
0.00000001
 40
0.0
 40
0.0
 40
0.0
 40
1.0
 40
1.0
 40
1.0
 10
-149.6281580705171
 20
17.56611349185314
 30
0.0
 10
-148.9819992163505
 20
18.55732442935314
 30
0.0
 10
-147.2339523413505
 20
19.59573588768648
 30
0.0
  0
SPLINE
  5
100000A8
102
{ACAD_XDICTIONARY
360
100000A9
102
}
330
1F
100
AcDbEntity
  8
VISIBLE
100
AcDbSpline
210
0.0
220
0.0
230
1.0
 70
     8
 71
     2
 72
     6
 73
     3
 74
     0
 42
0.000000001
 43
0.00000001
 40
0.0
 40
0.0
 40
0.0
 40
1.0
 40
1.0
 40
1.0
 10
-147.2339523413505
 20
19.59573588768648
 30
0.0
 10
-148.8908533830171
 20
21.54886088768647
 30
0.0
 10
-148.8908533830171
 20
23.21878276268647
 30
0.0
  0
SPLINE
  5
100000AB
102
{ACAD_XDICTIONARY
360
100000AC
102
}
330
1F
100
AcDbEntity
  8
VISIBLE
100
AcDbSpline
210
0.0
220
0.0
230
1.0
 70
     8
 71
     2
 72
     6
 73
     3
 74
     0
 42
0.000000001
 43
0.00000001
 40
0.0
 40
0.0
 40
0.0
 40
1.0
 40
1.0
 40
1.0
 10
-148.8908533830171
 20
23.21878276268647
 30
0.0
 10
-148.8908533830171
 20
24.72268901268647
 30
0.0
 10
-147.9191736955171
 20
25.59834005435313
 30
0.0
  0
SPLINE
  5
100000AE
102
{ACAD_XDICTIONARY
360
100000AF
102
}
330
1F
100
AcDbEntity
  8
VISIBLE
100
AcDbSpline
210
0.0
220
0.0
230
1.0
 70
     8
 71
     2
 72
     6
 73
     3
 74
     0
 42
0.000000001
 43
0.00000001
 40
0.0
 40
0.0
 40
0.0
 40
1.0
 40
1.0
 40
1.0
 10
-147.9191736955171
 20
25.59834005435313
 30
0.0
 10
-146.9474940080171
 20
26.47399109601979
 30
0.0
 10
-145.1278325496838
 20
26.47399109601979
 30
0.0
  0
SPLINE
  5
100000B1
102
{ACAD_XDICTIONARY
360
100000B2
102
}
330
1F
100
AcDbEntity
  8
VISIBLE
100
AcDbSpline
210
0.0
220
0.0
230
1.0
 70
     8
 71
     2
 72
     6
 73
     3
 74
     0
 42
0.000000001
 43
0.00000001
 40
0.0
 40
0.0
 40
0.0
 40
1.0
 40
1.0
 40
1.0
 10
-145.1278325496838
 20
26.47399109601979
 30
0.0
 10
-143.4188481746838
 20
26.47399109601979
 30
0.0
 10
-142.4780929663505
 20
25.60322286685313
 30
0.0
  0
SPLINE
  5
100000B4
102
{ACAD_XDICTIONARY
360
100000B5
102
}
330
1F
100
AcDbEntity
  8
VISIBLE
100
AcDbSpline
210
0.0
220
0.0
230
1.0
 70
     8
 71
     2
 72
     6
 73
     3
 74
     0
 42
0.000000001
 43
0.00000001
 40
0.0
 40
0.0
 40
0.0
 40
1.0
 40
1.0
 40
1.0
 10
-142.4780929663505
 20
25.60322286685313
 30
0.0
 10
-141.5373377580171
 20
24.73245463768647
 30
0.0
 10
-141.5373377580171
 20
23.21878276268647
 30
0.0
  0
CIRCLE
  5
100000B7
102
{ACAD_XDICTIONARY
360
100000B8
102
}
330
1F
100
AcDbEntity
  8
VISIBLE
100
AcDbCircle
 10
123.1876622419812
 20
187.366569221017
 30
0.0
 40
1.500000000000001
  0
CIRCLE
  5
100000BC
102
{ACAD_XDICTIONARY
360
100000BD
102
}
330
1F
100
AcDbEntity
  8
VISIBLE
100
AcDbCircle
 10
-214.4123377580165
 20
187.3665692210192
 30
0.0
 40
1.500000000000001
  0
CIRCLE
  5
100000C1
102
{ACAD_XDICTIONARY
360
100000C2
102
}
330
1F
100
AcDbEntity
  8
VISIBLE
100
AcDbCircle
 10
102.1876622419829
 20
-8.633430778980221
 30
0.0
 40
2.750000000000003
  0
CIRCLE
  5
100000C6
102
{ACAD_XDICTIONARY
360
100000C7
102
}
330
1F
100
AcDbEntity
  8
VISIBLE
100
AcDbCircle
 10
-193.412337758017
 20
-8.63343077898026
 30
0.0
 40
2.750000000000003
  0
SPLINE
  5
100000CB
102
{ACAD_XDICTIONARY
360
100000CC
102
}
330
1F
100
AcDbEntity
  8
VISIBLE
100
AcDbSpline
210
0.0
220
0.0
230
1.0
 70
     8
 71
     2
 72
     6
 73
     3
 74
     0
 42
0.000000001
 43
0.00000001
 40
0.0
 40
0.0
 40
0.0
 40
1.0
 40
1.0
 40
1.0
 10
-81.64475963301726
 20
11.16149109601983
 30
0.0
 10
-83.75087942468393
 20
11.16149109601983
 30
0.0
 10
-84.91949921635059
 20
12.77932963768649
 30
0.0
  0
LINE
  5
100000CE
102
{ACAD_XDICTIONARY
360
100000CF
102
}
330
1F
100
AcDbEntity
  8
VISIBLE
100
AcDbLine
 10
-84.91949921635059
 20
12.77932963768649
 30
0.0
 11
-85.04319713301727
 21
12.77932963768649
 31
0.0
  0
SPLINE
  5
100000D1
102
{ACAD_XDICTIONARY
360
100000D2
102
}
330
1F
100
AcDbEntity
  8
VISIBLE
100
AcDbSpline
210
0.0
220
0.0
230
1.0
 70
     8
 71
     2
 72
     6
 73
     3
 74
     0
 42
0.000000001
 43
0.00000001
 40
0.0
 40
0.0
 40
0.0
 40
1.0
 40
1.0
 40
1.0
 10
-85.04319713301727
 20
12.77932963768649
 30
0.0
 10
-84.91949921635059
 20
11.46748067935316
 30
0.0
 10
-84.91949921635059
 20
11.13219422101983
 30
0.0
  0
LINE
  5
100000D4
102
{ACAD_XDICTIONARY
360
100000D5
102
}
330
1F
100
AcDbEntity
  8
VISIBLE
100
AcDbLine
 10
-84.91949921635059
 20
11.13219422101983
 30
0.0
 11
-84.91949921635059
 21
6.360058804353172
 31
0.0
  0
LINE
  5
100000D7
102
{ACAD_XDICTIONARY
360
100000D8
102
}
330
1F
100
AcDbEntity
  8
VISIBLE
100
AcDbLine
 10
-84.91949921635059
 20
6.360058804353172
 30
0.0
 11
-86.77171275801726
 21
6.360058804353173
 31
0.0
  0
LINE
  5
100000DA
102
{ACAD_XDICTIONARY
360
100000DB
102
}
330
1F
100
AcDbEntity
  8
VISIBLE
100
AcDbLine
 10
-86.77171275801726
 20
6.360058804353173
 30
0.0
 11
-86.77171275801726
 21
22.53518901268647
 31
0.0
  0
LINE
  5
100000DD
102
{ACAD_XDICTIONARY
360
100000DE
102
}
330
1F
100
AcDbEntity
  8
VISIBLE
100
AcDbLine
 10
-86.77171275801726
 20
22.53518901268647
 30
0.0
 11
-85.27757213301724
 21
22.53518901268647
 31
0.0
  0
LINE
  5
100000E0
102
{ACAD_XDICTIONARY
360
100000E1
102
}
330
1F
100
AcDbEntity
  8
VISIBLE
100
AcDbLine
 10
-85.27757213301724
 20
22.53518901268647
 30
0.0
 11
-85.00087942468393
 21
21.03128276268647
 31
0.0
  0
LINE
  5
100000E3
102
{ACAD_XDICTIONARY
360
100000E4
102
}
330
1F
100
AcDbEntity
  8
VISIBLE
100
AcDbLine
 10
-85.00087942468393
 20
21.03128276268647
 30
0.0
 11
-84.91949921635059
 21
21.03128276268647
 31
0.0
  0
SPLINE
  5
100000E6
102
{ACAD_XDICTIONARY
360
100000E7
102
}
330
1F
100
AcDbEntity
  8
VISIBLE
100
AcDbSpline
210
0.0
220
0.0
230
1.0
 70
     8
 71
     2
 72
     6
 73
     3
 74
     0
 42
0.000000001
 43
0.00000001
 40
0.0
 40
0.0
 40
0.0
 40
1.0
 40
1.0
 40
1.0
 10
-84.91949921635059
 20
21.03128276268647
 30
0.0
 10
-83.80296275801727
 20
22.74026713768647
 30
0.0
 10
-81.64475963301726
 20
22.74026713768647
 30
0.0
  0
SPLINE
  5
100000E9
102
{ACAD_XDICTIONARY
360
100000EA
102
}
330
1F
100
AcDbEntity
  8
VISIBLE
100
AcDbSpline
210
0.0
220
0.0
230
1.0
 70
     8
 71
     2
 72
     6
 73
     3
 74
     0
 42
0.000000001
 43
0.00000001
 40
0.0
 40
0.0
 40
0.0
 40
1.0
 40
1.0
 40
1.0
 10
-81.64475963301726
 20
22.74026713768647
 30
0.0
 10
-79.60048879968396
 20
22.74026713768647
 30
0.0
 10
-78.43512421635063
 20
21.21845724185314
 30
0.0
  0
SPLINE
  5
100000EC
102
{ACAD_XDICTIONARY
360
100000ED
102
}
330
1F
100
AcDbEntity
  8
VISIBLE
100
AcDbSpline
210
0.0
220
0.0
230
1.0
 70
     8
 71
     2
 72
     6
 73
     3
 74
     0
 42
0.000000001
 43
0.00000001
 40
0.0
 40
0.0
 40
0.0
 40
1.0
 40
1.0
 40
1.0
 10
-78.43512421635063
 20
21.21845724185314
 30
0.0
 10
-77.26975963301727
 20
19.69664734601981
 30
0.0
 10
-77.26975963301727
 20
16.97203797101982
 30
0.0
  0
SPLINE
  5
100000EF
102
{ACAD_XDICTIONARY
360
100000F0
102
}
330
1F
100
AcDbEntity
  8
VISIBLE
100
AcDbSpline
210
0.0
220
0.0
230
1.0
 70
     8
 71
     2
 72
     6
 73
     3
 74
     0
 42
0.000000001
 43
0.00000001
 40
0.0
 40
0.0
 40
0.0
 40
1.0
 40
1.0
 40
1.0
 10
-77.26975963301727
 20
16.97203797101982
 30
0.0
 10
-77.26975963301727
 20
14.22464213768649
 30
0.0
 10
-78.44000702885062
 20
12.69306661685316
 30
0.0
  0
SPLINE
  5
100000F2
102
{ACAD_XDICTIONARY
360
100000F3
102
}
330
1F
100
AcDbEntity
  8
VISIBLE
100
AcDbSpline
210
0.0
220
0.0
230
1.0
 70
     8
 71
     2
 72
     6
 73
     3
 74
     0
 42
0.000000001
 43
0.00000001
 40
0.0
 40
0.0
 40
0.0
 40
1.0
 40
1.0
 40
1.0
 10
-78.44000702885062
 20
12.69306661685316
 30
0.0
 10
-79.61025442468394
 20
11.16149109601983
 30
0.0
 10
-81.64475963301726
 20
11.16149109601983
 30
0.0
  0
LINE
  5
100000F5
102
{ACAD_XDICTIONARY
360
100000F6
102
}
330
1F
100
AcDbEntity
  8
VISIBLE
100
AcDbLine
 10
-95.37848359135057
 20
12.82164734601982
 30
0.0
 11
-95.37848359135057
 21
21.07034526268647
 31
0.0
  0
LINE
  5
100000F8
102
{ACAD_XDICTIONARY
360
100000F9
102
}
330
1F
100
AcDbEntity
  8
VISIBLE
100
AcDbLine
 10
-95.37848359135057
 20
21.07034526268647
 30
0.0
 11
-98.1161137996839
 21
21.28518901268647
 31
0.0
  0
LINE
  5
100000FB
102
{ACAD_XDICTIONARY
360
100000FC
102
}
330
1F
100
AcDbEntity
  8
VISIBLE
100
AcDbLine
 10
-98.1161137996839
 20
21.28518901268647
 30
0.0
 11
-98.1161137996839
 21
22.53518901268647
 31
0.0
  0
LINE
  5
100000FE
102
{ACAD_XDICTIONARY
360
100000FF
102
}
330
1F
100
AcDbEntity
  8
VISIBLE
100
AcDbLine
 10
-98.1161137996839
 20
22.53518901268647
 30
0.0
 11
-93.52952525801724
 21
22.53518901268647
 31
0.0
  0
LINE
  5
10000101
102
{ACAD_XDICTIONARY
360
10000102
102
}
330
1F
100
AcDbEntity
  8
VISIBLE
100
AcDbLine
 10
-93.52952525801724
 20
22.53518901268647
 30
0.0
 11
-93.52952525801724
 21
12.82164734601983
 31
0.0
  0
LINE
  5
10000104
102
{ACAD_XDICTIONARY
360
10000105
102
}
330
1F
100
AcDbEntity
  8
VISIBLE
100
AcDbLine
 10
-93.52952525801724
 20
12.82164734601983
 30
0.0
 11
-89.94879609135059
 21
12.61656922101982
 31
0.0
  0
LINE
  5
10000107
102
{ACAD_XDICTIONARY
360
10000108
102
}
330
1F
100
AcDbEntity
  8
VISIBLE
100
AcDbLine
 10
-89.94879609135059
 20
12.61656922101982
 30
0.0
 11
-89.94879609135059
 21
11.36656922101983
 31
0.0
  0
LINE
  5
1000010A
102
{ACAD_XDICTIONARY
360
1000010B
102
}
330
1F
100
AcDbEntity
  8
VISIBLE
100
AcDbLine
 10
-89.94879609135059
 20
11.36656922101983
 30
0.0
 11
-98.8778325496839
 21
11.36656922101983
 31
0.0
  0
LINE
  5
1000010D
102
{ACAD_XDICTIONARY
360
1000010E
102
}
330
1F
100
AcDbEntity
  8
VISIBLE
100
AcDbLine
 10
-98.8778325496839
 20
11.36656922101983
 30
0.0
 11
-98.8778325496839
 21
12.61656922101983
 31
0.0
  0
LINE
  5
10000110
102
{ACAD_XDICTIONARY
360
10000111
102
}
330
1F
100
AcDbEntity
  8
VISIBLE
100
AcDbLine
 10
-98.8778325496839
 20
12.61656922101983
 30
0.0
 11
-95.37848359135057
 21
12.82164734601982
 31
0.0
  0
SPLINE
  5
10000113
102
{ACAD_XDICTIONARY
360
10000114
102
}
330
1F
100
AcDbEntity
  8
VISIBLE
100
AcDbSpline
210
0.0
220
0.0
230
1.0
 70
     8
 71
     2
 72
     6
 73
     3
 74
     0
 42
0.000000001
 43
0.00000001
 40
0.0
 40
0.0
 40
0.0
 40
1.0
 40
1.0
 40
1.0
 10
-95.53147838301724
 20
25.97594422101979
 30
0.0
 10
-95.53147838301724
 20
27.13479838768646
 30
0.0
 10
-94.44423879968392
 20
27.13479838768646
 30
0.0
  0
SPLINE
  5
10000116
102
{ACAD_XDICTIONARY
360
10000117
102
}
330
1F
100
AcDbEntity
  8
VISIBLE
100
AcDbSpline
210
0.0
220
0.0
230
1.0
 70
     8
 71
     2
 72
     6
 73
     3
 74
     0
 42
0.000000001
 43
0.00000001
 40
0.0
 40
0.0
 40
0.0
 40
1.0
 40
1.0
 40
1.0
 10
-94.44423879968392
 20
27.13479838768646
 30
0.0
 10
-93.36676484135057
 20
27.13479838768646
 30
0.0
 10
-93.36676484135057
 20
25.97594422101979
 30
0.0
  0
SPLINE
  5
10000119
102
{ACAD_XDICTIONARY
360
1000011A
102
}
330
1F
100
AcDbEntity
  8
VISIBLE
100
AcDbSpline
210
0.0
220
0.0
230
1.0
 70
     8
 71
     2
 72
     6
 73
     3
 74
     0
 42
0.000000001
 43
0.00000001
 40
0.0
 40
0.0
 40
0.0
 40
1.0
 40
1.0
 40
1.0
 10
-93.36676484135057
 20
25.97594422101979
 30
0.0
 10
-93.36676484135057
 20
25.38349630435313
 30
0.0
 10
-93.68577525801724
 20
25.09378276268647
 30
0.0
  0
SPLINE
  5
1000011C
102
{ACAD_XDICTIONARY
360
1000011D
102
}
330
1F
100
AcDbEntity
  8
VISIBLE
100
AcDbSpline
210
0.0
220
0.0
230
1.0
 70
     8
 71
     2
 72
     6
 73
     3
 74
     0
 42
0.000000001
 43
0.00000001
 40
0.0
 40
0.0
 40
0.0
 40
1.0
 40
1.0
 40
1.0
 10
-93.68577525801724
 20
25.09378276268647
 30
0.0
 10
-94.00478567468392
 20
24.8040692210198
 30
0.0
 10
-94.44423879968392
 20
24.8040692210198
 30
0.0
  0
SPLINE
  5
1000011F
102
{ACAD_XDICTIONARY
360
10000120
102
}
330
1F
100
AcDbEntity
  8
VISIBLE
100
AcDbSpline
210
0.0
220
0.0
230
1.0
 70
     8
 71
     2
 72
     6
 73
     3
 74
     0
 42
0.000000001
 43
0.00000001
 40
0.0
 40
0.0
 40
0.0
 40
1.0
 40
1.0
 40
1.0
 10
-94.44423879968392
 20
24.8040692210198
 30
0.0
 10
-95.53147838301724
 20
24.8040692210198
 30
0.0
 10
-95.53147838301724
 20
25.97594422101979
 30
0.0
  0
LINE
  5
10000122
102
{ACAD_XDICTIONARY
360
10000123
102
}
330
1F
100
AcDbEntity
  8
VISIBLE
100
AcDbLine
 10
-102.5106450496839
 20
11.36656922101983
 30
0.0
 11
-104.3628585913506
 21
11.36656922101983
 31
0.0
  0
LINE
  5
10000125
102
{ACAD_XDICTIONARY
360
10000126
102
}
330
1F
100
AcDbEntity
  8
VISIBLE
100
AcDbLine
 10
-104.3628585913506
 20
11.36656922101983
 30
0.0
 11
-104.3628585913506
 21
18.55732442935314
 31
0.0
  0
SPLINE
  5
10000128
102
{ACAD_XDICTIONARY
360
10000129
102
}
330
1F
100
AcDbEntity
  8
VISIBLE
100
AcDbSpline
210
0.0
220
0.0
230
1.0
 70
     8
 71
     2
 72
     6
 73
     3
 74
     0
 42
0.000000001
 43
0.00000001
 40
0.0
 40
0.0
 40
0.0
 40
1.0
 40
1.0
 40
1.0
 10
-104.3628585913506
 20
18.55732442935314
 30
0.0
 10
-104.3628585913506
 20
21.20380880435314
 30
0.0
 10
-106.7847335913506
 20
21.20380880435314
 30
0.0
  0
SPLINE
  5
1000012B
102
{ACAD_XDICTIONARY
360
1000012C
102
}
330
1F
100
AcDbEntity
  8
VISIBLE
100
AcDbSpline
210
0.0
220
0.0
230
1.0
 70
     8
 71
     2
 72
     6
 73
     3
 74
     0
 42
0.000000001
 43
0.00000001
 40
0.0
 40
0.0
 40
0.0
 40
1.0
 40
1.0
 40
1.0
 10
-106.7847335913506
 20
21.20380880435314
 30
0.0
 10
-109.9064783830172
 20
21.20380880435314
 30
0.0
 10
-109.9064783830172
 20
17.15432963768648
 30
0.0
  0
LINE
  5
1000012E
102
{ACAD_XDICTIONARY
360
1000012F
102
}
330
1F
100
AcDbEntity
  8
VISIBLE
100
AcDbLine
 10
-109.9064783830172
 20
17.15432963768648
 30
0.0
 11
-109.9064783830172
 21
11.36656922101983
 31
0.0
  0
LINE
  5
10000131
102
{ACAD_XDICTIONARY
360
10000132
102
}
330
1F
100
AcDbEntity
  8
VISIBLE
100
AcDbLine
 10
-109.9064783830172
 20
11.36656922101983
 30
0.0
 11
-111.7586919246839
 21
11.36656922101982
 31
0.0
  0
LINE
  5
10000134
102
{ACAD_XDICTIONARY
360
10000135
102
}
330
1F
100
AcDbEntity
  8
VISIBLE
100
AcDbLine
 10
-111.7586919246839
 20
11.36656922101982
 30
0.0
 11
-111.7586919246839
 21
22.53518901268647
 31
0.0
  0
LINE
  5
10000137
102
{ACAD_XDICTIONARY
360
10000138
102
}
330
1F
100
AcDbEntity
  8
VISIBLE
100
AcDbLine
 10
-111.7586919246839
 20
22.53518901268647
 30
0.0
 11
-110.2645512996839
 21
22.53518901268647
 31
0.0
  0
LINE
  5
1000013A
102
{ACAD_XDICTIONARY
360
1000013B
102
}
330
1F
100
AcDbEntity
  8
VISIBLE
100
AcDbLine
 10
-110.2645512996839
 20
22.53518901268647
 30
0.0
 11
-109.9878585913505
 21
21.03128276268647
 31
0.0
  0
LINE
  5
1000013D
102
{ACAD_XDICTIONARY
360
1000013E
102
}
330
1F
100
AcDbEntity
  8
VISIBLE
100
AcDbLine
 10
-109.9878585913505
 20
21.03128276268647
 30
0.0
 11
-109.8869471330172
 21
21.03128276268647
 31
0.0
  0
SPLINE
  5
10000140
102
{ACAD_XDICTIONARY
360
10000141
102
}
330
1F
100
AcDbEntity
  8
VISIBLE
100
AcDbSpline
210
0.0
220
0.0
230
1.0
 70
     8
 71
     2
 72
     6
 73
     3
 74
     0
 42
0.000000001
 43
0.00000001
 40
0.0
 40
0.0
 40
0.0
 40
1.0
 40
1.0
 40
1.0
 10
-109.8869471330172
 20
21.03128276268647
 30
0.0
 10
-108.8387700496839
 20
22.74026713768647
 30
0.0
 10
-106.4689783830172
 20
22.74026713768647
 30
0.0
  0
SPLINE
  5
10000143
102
{ACAD_XDICTIONARY
360
10000144
102
}
330
1F
100
AcDbEntity
  8
VISIBLE
100
AcDbSpline
210
0.0
220
0.0
230
1.0
 70
     8
 71
     2
 72
     6
 73
     3
 74
     0
 42
0.000000001
 43
0.00000001
 40
0.0
 40
0.0
 40
0.0
 40
1.0
 40
1.0
 40
1.0
 10
-106.4689783830172
 20
22.74026713768647
 30
0.0
 10
-102.5106450496839
 20
22.74026713768647
 30
0.0
 10
-102.5106450496839
 20
18.66149109601981
 30
0.0
  0
LINE
  5
10000146
102
{ACAD_XDICTIONARY
360
10000147
102
}
330
1F
100
AcDbEntity
  8
VISIBLE
100
AcDbLine
 10
-102.5106450496839
 20
18.66149109601981
 30
0.0
 11
-102.5106450496839
 21
11.36656922101983
 31
0.0
  0
SPLINE
  5
10000149
102
{ACAD_XDICTIONARY
360
1000014A
102
}
330
1F
100
AcDbEntity
  8
VISIBLE
100
AcDbSpline
210
0.0
220
0.0
230
1.0
 70
     8
 71
     2
 72
     6
 73
     3
 74
     0
 42
0.000000001
 43
0.00000001
 40
0.0
 40
0.0
 40
0.0
 40
1.0
 40
1.0
 40
1.0
 10
-120.2450200496839
 20
11.16149109601983
 30
0.0
 10
-122.9403325496839
 20
11.16149109601983
 30
0.0
 10
-124.4540044246838
 20
11.86461609601982
 30
0.0
  0
LINE
  5
1000014C
102
{ACAD_XDICTIONARY
360
1000014D
102
}
330
1F
100
AcDbEntity
  8
VISIBLE
100
AcDbLine
 10
-124.4540044246838
 20
11.86461609601982
 30
0.0
 11
-124.4540044246838
 21
13.67451192935316
 31
0.0
  0
SPLINE
  5
1000014F
102
{ACAD_XDICTIONARY
360
10000150
102
}
330
1F
100
AcDbEntity
  8
VISIBLE
100
AcDbSpline
210
0.0
220
0.0
230
1.0
 70
     8
 71
     2
 72
     6
 73
     3
 74
     0
 42
0.000000001
 43
0.00000001
 40
0.0
 40
0.0
 40
0.0
 40
1.0
 40
1.0
 40
1.0
 10
-124.4540044246838
 20
13.67451192935316
 30
0.0
 10
-122.3088221330172
 20
12.80211609601982
 30
0.0
 10
-120.2450200496839
 20
12.80211609601982
 30
0.0
  0
SPLINE
  5
10000152
102
{ACAD_XDICTIONARY
360
10000153
102
}
330
1F
100
AcDbEntity
  8
VISIBLE
100
AcDbSpline
210
0.0
220
0.0
230
1.0
 70
     8
 71
     2
 72
     6
 73
     3
 74
     0
 42
0.000000001
 43
0.00000001
 40
0.0
 40
0.0
 40
0.0
 40
1.0
 40
1.0
 40
1.0
 10
-120.2450200496839
 20
12.80211609601982
 30
0.0
 10
-116.6838221330172
 20
12.80211609601982
 30
0.0
 10
-116.6838221330172
 20
15.24352234601982
 30
0.0
  0
SPLINE
  5
10000155
102
{ACAD_XDICTIONARY
360
10000156
102
}
330
1F
100
AcDbEntity
  8
VISIBLE
100
AcDbSpline
210
0.0
220
0.0
230
1.0
 70
     8
 71
     2
 72
     6
 73
     3
 74
     0
 42
0.000000001
 43
0.00000001
 40
0.0
 40
0.0
 40
0.0
 40
1.0
 40
1.0
 40
1.0
 10
-116.6838221330172
 20
15.24352234601982
 30
0.0
 10
-116.6838221330172
 20
16.30146505435315
 30
0.0
 10
-117.3999679663505
 20
16.87112651268648
 30
0.0
  0
SPLINE
  5
10000158
102
{ACAD_XDICTIONARY
360
10000159
102
}
330
1F
100
AcDbEntity
  8
VISIBLE
100
AcDbSpline
210
0.0
220
0.0
230
1.0
 70
     8
 71
     2
 72
     6
 73
     3
 74
     0
 42
0.000000001
 43
0.00000001
 40
0.0
 40
0.0
 40
0.0
 40
1.0
 40
1.0
 40
1.0
 10
-117.3999679663505
 20
16.87112651268648
 30
0.0
 10
-118.1161137996839
 20
17.44078797101981
 30
0.0
 10
-120.3036137996838
 20
18.22203797101981
 30
0.0
  0
SPLINE
  5
1000015B
102
{ACAD_XDICTIONARY
360
1000015C
102
}
330
1F
100
AcDbEntity
  8
VISIBLE
100
AcDbSpline
210
0.0
220
0.0
230
1.0
 70
     8
 71
     2
 72
     6
 73
     3
 74
     0
 42
0.000000001
 43
0.00000001
 40
0.0
 40
0.0
 40
0.0
 40
1.0
 40
1.0
 40
1.0
 10
-120.3036137996838
 20
18.22203797101981
 30
0.0
 10
-122.4194992163505
 20
18.96422547101981
 30
0.0
 10
-123.3407231746838
 20
19.99775411685314
 30
0.0
  0
SPLINE
  5
1000015E
102
{ACAD_XDICTIONARY
360
1000015F
102
}
330
1F
100
AcDbEntity
  8
VISIBLE
100
AcDbSpline
210
0.0
220
0.0
230
1.0
 70
     8
 71
     2
 72
     6
 73
     3
 74
     0
 42
0.000000001
 43
0.00000001
 40
0.0
 40
0.0
 40
0.0
 40
1.0
 40
1.0
 40
1.0
 10
-123.3407231746838
 20
19.99775411685314
 30
0.0
 10
-124.2619471330172
 20
21.03128276268647
 30
0.0
 10
-124.2619471330172
 20
22.67841817935313
 30
0.0
  0
SPLINE
  5
10000161
102
{ACAD_XDICTIONARY
360
10000162
102
}
330
1F
100
AcDbEntity
  8
VISIBLE
100
AcDbSpline
210
0.0
220
0.0
230
1.0
 70
     8
 71
     2
 72
     6
 73
     3
 74
     0
 42
0.000000001
 43
0.00000001
 40
0.0
 40
0.0
 40
0.0
 40
1.0
 40
1.0
 40
1.0
 10
-124.2619471330172
 20
22.67841817935313
 30
0.0
 10
-124.2619471330172
 20
24.44925151268647
 30
0.0
 10
-122.9549809871839
 20
25.45022807518646
 30
0.0
  0
SPLINE
  5
10000164
102
{ACAD_XDICTIONARY
360
10000165
102
}
330
1F
100
AcDbEntity
  8
VISIBLE
100
AcDbSpline
210
0.0
220
0.0
230
1.0
 70
     8
 71
     2
 72
     6
 73
     3
 74
     0
 42
0.000000001
 43
0.00000001
 40
0.0
 40
0.0
 40
0.0
 40
1.0
 40
1.0
 40
1.0
 10
-122.9549809871839
 20
25.45022807518646
 30
0.0
 10
-121.6480148413505
 20
26.45120463768646
 30
0.0
 10
-119.3693690080172
 20
26.45120463768646
 30
0.0
  0
SPLINE
  5
10000167
102
{ACAD_XDICTIONARY
360
10000168
102
}
330
1F
100
AcDbEntity
  8
VISIBLE
100
AcDbSpline
210
0.0
220
0.0
230
1.0
 70
     8
 71
     2
 72
     6
 73
     3
 74
     0
 42
0.000000001
 43
0.00000001
 40
0.0
 40
0.0
 40
0.0
 40
1.0
 40
1.0
 40
1.0
 10
-119.3693690080172
 20
26.45120463768646
 30
0.0
 10
-117.0386398413505
 20
26.45120463768646
 30
0.0
 10
-115.1375981746839
 20
25.66018901268646
 30
0.0
  0
LINE
  5
1000016A
102
{ACAD_XDICTIONARY
360
1000016B
102
}
330
1F
100
AcDbEntity
  8
VISIBLE
100
AcDbLine
 10
-115.1375981746839
 20
25.66018901268646
 30
0.0
 11
-115.7886398413505
 21
23.99026713768647
 31
0.0
  0
SPLINE
  5
1000016D
102
{ACAD_XDICTIONARY
360
1000016E
102
}
330
1F
100
AcDbEntity
  8
VISIBLE
100
AcDbSpline
210
0.0
220
0.0
230
1.0
 70
     8
 71
     2
 72
     6
 73
     3
 74
     0
 42
0.000000001
 43
0.00000001
 40
0.0
 40
0.0
 40
0.0
 40
1.0
 40
1.0
 40
1.0
 10
-115.7886398413505
 20
23.99026713768647
 30
0.0
 10
-117.7515304663505
 20
24.7845379710198
 30
0.0
 10
-119.4507492163505
 20
24.7845379710198
 30
0.0
  0
SPLINE
  5
10000170
102
{ACAD_XDICTIONARY
360
10000171
102
}
330
1F
100
AcDbEntity
  8
VISIBLE
100
AcDbSpline
210
0.0
220
0.0
230
1.0
 70
     8
 71
     2
 72
     6
 73
     3
 74
     0
 42
0.000000001
 43
0.00000001
 40
0.0
 40
0.0
 40
0.0
 40
1.0
 40
1.0
 40
1.0
 10
-119.4507492163505
 20
24.7845379710198
 30
0.0
 10
-122.4292648413505
 20
24.7845379710198
 30
0.0
 10
-122.4292648413505
 20
22.65888692935314
 30
0.0
  0
SPLINE
  5
10000173
102
{ACAD_XDICTIONARY
360
10000174
102
}
330
1F
100
AcDbEntity
  8
VISIBLE
100
AcDbSpline
210
0.0
220
0.0
230
1.0
 70
     8
 71
     2
 72
     6
 73
     3
 74
     0
 42
0.000000001
 43
0.00000001
 40
0.0
 40
0.0
 40
0.0
 40
1.0
 40
1.0
 40
1.0
 10
-122.4292648413505
 20
22.65888692935314
 30
0.0
 10
-122.4292648413505
 20
21.62047547101981
 30
0.0
 10
-121.7635747371839
 20
20.99059265851981
 30
0.0
  0
SPLINE
  5
10000176
102
{ACAD_XDICTIONARY
360
10000177
102
}
330
1F
100
AcDbEntity
  8
VISIBLE
100
AcDbSpline
210
0.0
220
0.0
230
1.0
 70
     8
 71
     2
 72
     6
 73
     3
 74
     0
 42
0.000000001
 43
0.00000001
 40
0.0
 40
0.0
 40
0.0
 40
1.0
 40
1.0
 40
1.0
 10
-121.7635747371839
 20
20.99059265851981
 30
0.0
 10
-121.0978846330172
 20
20.36070984601981
 30
0.0
 10
-119.0112960913505
 20
19.63805359601981
 30
0.0
  0
SPLINE
  5
10000179
102
{ACAD_XDICTIONARY
360
1000017A
102
}
330
1F
100
AcDbEntity
  8
VISIBLE
100
AcDbSpline
210
0.0
220
0.0
230
1.0
 70
     8
 71
     2
 72
     6
 73
     3
 74
     0
 42
0.000000001
 43
0.00000001
 40
0.0
 40
0.0
 40
0.0
 40
1.0
 40
1.0
 40
1.0
 10
-119.0112960913505
 20
19.63805359601981
 30
0.0
 10
-116.5112960913505
 20
18.74287130435314
 30
0.0
 10
-115.6714523413505
 20
17.79072286685315
 30
0.0
  0
SPLINE
  5
1000017C
102
{ACAD_XDICTIONARY
360
1000017D
102
}
330
1F
100
AcDbEntity
  8
VISIBLE
100
AcDbSpline
210
0.0
220
0.0
230
1.0
 70
     8
 71
     2
 72
     6
 73
     3
 74
     0
 42
0.000000001
 43
0.00000001
 40
0.0
 40
0.0
 40
0.0
 40
1.0
 40
1.0
 40
1.0
 10
-115.6714523413505
 20
17.79072286685315
 30
0.0
 10
-114.8316085913505
 20
16.83857442935315
 30
0.0
 10
-114.8316085913505
 20
15.34443380435315
 30
0.0
  0
SPLINE
  5
1000017F
102
{ACAD_XDICTIONARY
360
10000180
102
}
330
1F
100
AcDbEntity
  8
VISIBLE
100
AcDbSpline
210
0.0
220
0.0
230
1.0
 70
     8
 71
     2
 72
     6
 73
     3
 74
     0
 42
0.000000001
 43
0.00000001
 40
0.0
 40
0.0
 40
0.0
 40
1.0
 40
1.0
 40
1.0
 10
-114.8316085913505
 20
15.34443380435315
 30
0.0
 10
-114.8316085913505
 20
13.39130880435316
 30
0.0
 10
-116.2411137996839
 20
12.27639995018649
 30
0.0
  0
SPLINE
  5
10000182
102
{ACAD_XDICTIONARY
360
10000183
102
}
330
1F
100
AcDbEntity
  8
VISIBLE
100
AcDbSpline
210
0.0
220
0.0
230
1.0
 70
     8
 71
     2
 72
     6
 73
     3
 74
     0
 42
0.000000001
 43
0.00000001
 40
0.0
 40
0.0
 40
0.0
 40
1.0
 40
1.0
 40
1.0
 10
-116.2411137996839
 20
12.27639995018649
 30
0.0
 10
-117.6506190080172
 20
11.16149109601983
 30
0.0
 10
-120.2450200496839
 20
11.16149109601983
 30
0.0
  0
LINE
  5
10000185
102
{ACAD_XDICTIONARY
360
10000186
102
}
330
1F
100
AcDbEntity
  8
VISIBLE
100
AcDbLine
 10
-166.5015304663504
 20
11.36656922101982
 30
0.0
 11
-166.7782231746838
 21
12.86070984601983
 31
0.0
  0
LINE
  5
10000188
102
{ACAD_XDICTIONARY
360
10000189
102
}
330
1F
100
AcDbEntity
  8
VISIBLE
100
AcDbLine
 10
-166.7782231746838
 20
12.86070984601983
 30
0.0
 11
-166.8596033830171
 21
12.86070984601982
 31
0.0
  0
SPLINE
  5
1000018B
102
{ACAD_XDICTIONARY
360
1000018C
102
}
330
1F
100
AcDbEntity
  8
VISIBLE
100
AcDbSpline
210
0.0
220
0.0
230
1.0
 70
     8
 71
     2
 72
     6
 73
     3
 74
     0
 42
0.000000001
 43
0.00000001
 40
0.0
 40
0.0
 40
0.0
 40
1.0
 40
1.0
 40
1.0
 10
-166.8596033830171
 20
12.86070984601982
 30
0.0
 10
-168.0086919246838
 20
11.16149109601983
 30
0.0
 10
-170.1343429663504
 20
11.16149109601983
 30
0.0
  0
SPLINE
  5
1000018E
102
{ACAD_XDICTIONARY
360
1000018F
102
}
330
1F
100
AcDbEntity
  8
VISIBLE
100
AcDbSpline
210
0.0
220
0.0
230
1.0
 70
     8
 71
     2
 72
     6
 73
     3
 74
     0
 42
0.000000001
 43
0.00000001
 40
0.0
 40
0.0
 40
0.0
 40
1.0
 40
1.0
 40
1.0
 10
-170.1343429663504
 20
11.16149109601983
 30
0.0
 10
-172.1786137996837
 20
11.16149109601983
 30
0.0
 10
-173.3439783830171
 20
12.68330099185316
 30
0.0
  0
SPLINE
  5
10000191
102
{ACAD_XDICTIONARY
360
10000192
102
}
330
1F
100
AcDbEntity
  8
VISIBLE
100
AcDbSpline
210
0.0
220
0.0
230
1.0
 70
     8
 71
     2
 72
     6
 73
     3
 74
     0
 42
0.000000001
 43
0.00000001
 40
0.0
 40
0.0
 40
0.0
 40
1.0
 40
1.0
 40
1.0
 10
-173.3439783830171
 20
12.68330099185316
 30
0.0
 10
-174.5093429663504
 20
14.20511088768649
 30
0.0
 10
-174.5093429663504
 20
16.92972026268648
 30
0.0
  0
SPLINE
  5
10000194
102
{ACAD_XDICTIONARY
360
10000195
102
}
330
1F
100
AcDbEntity
  8
VISIBLE
100
AcDbSpline
210
0.0
220
0.0
230
1.0
 70
     8
 71
     2
 72
     6
 73
     3
 74
     0
 42
0.000000001
 43
0.00000001
 40
0.0
 40
0.0
 40
0.0
 40
1.0
 40
1.0
 40
1.0
 10
-174.5093429663504
 20
16.92972026268648
 30
0.0
 10
-174.5093429663504
 20
19.67711609601981
 30
0.0
 10
-173.3390955705171
 20
21.20869161685314
 30
0.0
  0
SPLINE
  5
10000197
102
{ACAD_XDICTIONARY
360
10000198
102
}
330
1F
100
AcDbEntity
  8
VISIBLE
100
AcDbSpline
210
0.0
220
0.0
230
1.0
 70
     8
 71
     2
 72
     6
 73
     3
 74
     0
 42
0.000000001
 43
0.00000001
 40
0.0
 40
0.0
 40
0.0
 40
1.0
 40
1.0
 40
1.0
 10
-173.3390955705171
 20
21.20869161685314
 30
0.0
 10
-172.1688481746837
 20
22.74026713768647
 30
0.0
 10
-170.1343429663504
 20
22.74026713768647
 30
0.0
  0
SPLINE
  5
1000019A
102
{ACAD_XDICTIONARY
360
1000019B
102
}
330
1F
100
AcDbEntity
  8
VISIBLE
100
AcDbSpline
210
0.0
220
0.0
230
1.0
 70
     8
 71
     2
 72
     6
 73
     3
 74
     0
 42
0.000000001
 43
0.00000001
 40
0.0
 40
0.0
 40
0.0
 40
1.0
 40
1.0
 40
1.0
 10
-170.1343429663504
 20
22.74026713768647
 30
0.0
 10
-168.0379887996838
 20
22.74026713768647
 30
0.0
 10
-166.8596033830171
 20
21.11266297101981
 30
0.0
  0
LINE
  5
1000019D
102
{ACAD_XDICTIONARY
360
1000019E
102
}
330
1F
100
AcDbEntity
  8
VISIBLE
100
AcDbLine
 10
-166.8596033830171
 20
21.11266297101981
 30
0.0
 11
-166.7359054663504
 21
21.11266297101981
 31
0.0
  0
SPLINE
  5
100001A0
102
{ACAD_XDICTIONARY
360
100001A1
102
}
330
1F
100
AcDbEntity
  8
VISIBLE
100
AcDbSpline
210
0.0
220
0.0
230
1.0
 70
     8
 71
     2
 72
     6
 73
     3
 74
     0
 42
0.000000001
 43
0.00000001
 40
0.0
 40
0.0
 40
0.0
 40
1.0
 40
1.0
 40
1.0
 10
-166.7359054663504
 20
21.11266297101981
 30
0.0
 10
-166.8596033830171
 20
22.42451192935314
 30
0.0
 10
-166.8596033830171
 20
22.75979838768647
 30
0.0
  0
LINE
  5
100001A3
102
{ACAD_XDICTIONARY
360
100001A4
102
}
330
1F
100
AcDbEntity
  8
VISIBLE
100
AcDbLine
 10
-166.8596033830171
 20
22.75979838768647
 30
0.0
 11
-166.8596033830171
 21
27.19664734601979
 31
0.0
  0
LINE
  5
100001A6
102
{ACAD_XDICTIONARY
360
100001A7
102
}
330
1F
100
AcDbEntity
  8
VISIBLE
100
AcDbLine
 10
-166.8596033830171
 20
27.19664734601979
 30
0.0
 11
-165.0073898413504
 21
27.19664734601979
 31
0.0
  0
LINE
  5
100001A9
102
{ACAD_XDICTIONARY
360
100001AA
102
}
330
1F
100
AcDbEntity
  8
VISIBLE
100
AcDbLine
 10
-165.0073898413504
 20
27.19664734601979
 30
0.0
 11
-165.0073898413504
 21
11.36656922101983
 31
0.0
  0
LINE
  5
100001AC
102
{ACAD_XDICTIONARY
360
100001AD
102
}
330
1F
100
AcDbEntity
  8
VISIBLE
100
AcDbLine
 10
-165.0073898413504
 20
11.36656922101983
 30
0.0
 11
-166.5015304663504
 21
11.36656922101982
 31
0.0
  0
LINE
  5
100001AF
102
{ACAD_XDICTIONARY
360
100001B0
102
}
330
1F
100
AcDbEntity
  8
VISIBLE
100
AcDbLine
 10
-177.5301762996837
 20
11.36656922101983
 30
0.0
 11
-179.3823898413504
 21
11.36656922101983
 31
0.0
  0
LINE
  5
100001B2
102
{ACAD_XDICTIONARY
360
100001B3
102
}
330
1F
100
AcDbEntity
  8
VISIBLE
100
AcDbLine
 10
-179.3823898413504
 20
11.36656922101983
 30
0.0
 11
-179.3823898413504
 21
18.55732442935314
 31
0.0
  0
SPLINE
  5
100001B5
102
{ACAD_XDICTIONARY
360
100001B6
102
}
330
1F
100
AcDbEntity
  8
VISIBLE
100
AcDbSpline
210
0.0
220
0.0
230
1.0
 70
     8
 71
     2
 72
     6
 73
     3
 74
     0
 42
0.000000001
 43
0.00000001
 40
0.0
 40
0.0
 40
0.0
 40
1.0
 40
1.0
 40
1.0
 10
-179.3823898413504
 20
18.55732442935314
 30
0.0
 10
-179.3823898413504
 20
21.20380880435314
 30
0.0
 10
-181.8042648413504
 20
21.20380880435314
 30
0.0
  0
SPLINE
  5
100001B8
102
{ACAD_XDICTIONARY
360
100001B9
102
}
330
1F
100
AcDbEntity
  8
VISIBLE
100
AcDbSpline
210
0.0
220
0.0
230
1.0
 70
     8
 71
     2
 72
     6
 73
     3
 74
     0
 42
0.000000001
 43
0.00000001
 40
0.0
 40
0.0
 40
0.0
 40
1.0
 40
1.0
 40
1.0
 10
-181.8042648413504
 20
21.20380880435314
 30
0.0
 10
-184.9260096330171
 20
21.20380880435314
 30
0.0
 10
-184.9260096330171
 20
17.15432963768648
 30
0.0
  0
LINE
  5
100001BB
102
{ACAD_XDICTIONARY
360
100001BC
102
}
330
1F
100
AcDbEntity
  8
VISIBLE
100
AcDbLine
 10
-184.9260096330171
 20
17.15432963768648
 30
0.0
 11
-184.9260096330171
 21
11.36656922101983
 31
0.0
  0
LINE
  5
100001BE
102
{ACAD_XDICTIONARY
360
100001BF
102
}
330
1F
100
AcDbEntity
  8
VISIBLE
100
AcDbLine
 10
-184.9260096330171
 20
11.36656922101983
 30
0.0
 11
-186.7782231746837
 21
11.36656922101982
 31
0.0
  0
LINE
  5
100001C1
102
{ACAD_XDICTIONARY
360
100001C2
102
}
330
1F
100
AcDbEntity
  8
VISIBLE
100
AcDbLine
 10
-186.7782231746837
 20
11.36656922101982
 30
0.0
 11
-186.7782231746837
 21
22.53518901268647
 31
0.0
  0
LINE
  5
100001C4
102
{ACAD_XDICTIONARY
360
100001C5
102
}
330
1F
100
AcDbEntity
  8
VISIBLE
100
AcDbLine
 10
-186.7782231746837
 20
22.53518901268647
 30
0.0
 11
-185.2840825496837
 21
22.53518901268648
 31
0.0
  0
LINE
  5
100001C7
102
{ACAD_XDICTIONARY
360
100001C8
102
}
330
1F
100
AcDbEntity
  8
VISIBLE
100
AcDbLine
 10
-185.2840825496837
 20
22.53518901268648
 30
0.0
 11
-185.0073898413504
 21
21.03128276268647
 31
0.0
  0
LINE
  5
100001CA
102
{ACAD_XDICTIONARY
360
100001CB
102
}
330
1F
100
AcDbEntity
  8
VISIBLE
100
AcDbLine
 10
-185.0073898413504
 20
21.03128276268647
 30
0.0
 11
-184.9064783830171
 21
21.03128276268647
 31
0.0
  0
SPLINE
  5
100001CD
102
{ACAD_XDICTIONARY
360
100001CE
102
}
330
1F
100
AcDbEntity
  8
VISIBLE
100
AcDbSpline
210
0.0
220
0.0
230
1.0
 70
     8
 71
     2
 72
     6
 73
     3
 74
     0
 42
0.000000001
 43
0.00000001
 40
0.0
 40
0.0
 40
0.0
 40
1.0
 40
1.0
 40
1.0
 10
-184.9064783830171
 20
21.03128276268647
 30
0.0
 10
-183.8583012996837
 20
22.74026713768647
 30
0.0
 10
-181.4885096330171
 20
22.74026713768647
 30
0.0
  0
SPLINE
  5
100001D0
102
{ACAD_XDICTIONARY
360
100001D1
102
}
330
1F
100
AcDbEntity
  8
VISIBLE
100
AcDbSpline
210
0.0
220
0.0
230
1.0
 70
     8
 71
     2
 72
     6
 73
     3
 74
     0
 42
0.000000001
 43
0.00000001
 40
0.0
 40
0.0
 40
0.0
 40
1.0
 40
1.0
 40
1.0
 10
-181.4885096330171
 20
22.74026713768647
 30
0.0
 10
-177.5301762996837
 20
22.74026713768647
 30
0.0
 10
-177.5301762996837
 20
18.66149109601981
 30
0.0
  0
LINE
  5
100001D3
102
{ACAD_XDICTIONARY
360
100001D4
102
}
330
1F
100
AcDbEntity
  8
VISIBLE
100
AcDbLine
 10
-177.5301762996837
 20
18.66149109601981
 30
0.0
 11
-177.5301762996837
 21
11.36656922101983
 31
0.0
  0
LINE
  5
100001D6
102
{ACAD_XDICTIONARY
360
100001D7
102
}
330
1F
100
AcDbEntity
  8
VISIBLE
100
AcDbLine
 10
-212.0386398413503
 20
11.36656922101983
 30
0.0
 11
-212.0386398413503
 21
26.2396160960198
 31
0.0
  0
LINE
  5
100001D9
102
{ACAD_XDICTIONARY
360
100001DA
102
}
330
1F
100
AcDbEntity
  8
VISIBLE
100
AcDbLine
 10
-212.0386398413503
 20
26.2396160960198
 30
0.0
 11
-207.562728383017
 21
26.2396160960198
 31
0.0
  0
SPLINE
  5
100001DC
102
{ACAD_XDICTIONARY
360
100001DD
102
}
330
1F
100
AcDbEntity
  8
VISIBLE
100
AcDbSpline
210
0.0
220
0.0
230
1.0
 70
     8
 71
     2
 72
     6
 73
     3
 74
     0
 42
0.000000001
 43
0.00000001
 40
0.0
 40
0.0
 40
0.0
 40
1.0
 40
1.0
 40
1.0
 10
-207.562728383017
 20
26.2396160960198
 30
0.0
 10
-204.7762700496837
 20
26.2396160960198
 30
0.0
 10
-203.519759633017
 20
25.34931661685313
 30
0.0
  0
SPLINE
  5
100001DF
102
{ACAD_XDICTIONARY
360
100001E0
102
}
330
1F
100
AcDbEntity
  8
VISIBLE
100
AcDbSpline
210
0.0
220
0.0
230
1.0
 70
     8
 71
     2
 72
     6
 73
     3
 74
     0
 42
0.000000001
 43
0.00000001
 40
0.0
 40
0.0
 40
0.0
 40
1.0
 40
1.0
 40
1.0
 10
-203.519759633017
 20
25.34931661685313
 30
0.0
 10
-202.2632492163504
 20
24.45901713768647
 30
0.0
 10
-202.2632492163504
 20
22.47659526268647
 30
0.0
  0
SPLINE
  5
100001E2
102
{ACAD_XDICTIONARY
360
100001E3
102
}
330
1F
100
AcDbEntity
  8
VISIBLE
100
AcDbSpline
210
0.0
220
0.0
230
1.0
 70
     8
 71
     2
 72
     6
 73
     3
 74
     0
 42
0.000000001
 43
0.00000001
 40
0.0
 40
0.0
 40
0.0
 40
1.0
 40
1.0
 40
1.0
 10
-202.2632492163504
 20
22.47659526268647
 30
0.0
 10
-202.2632492163504
 20
21.17451192935314
 30
0.0
 10
-203.0624028621837
 20
20.30862651268647
 30
0.0
  0
SPLINE
  5
100001E5
102
{ACAD_XDICTIONARY
360
100001E6
102
}
330
1F
100
AcDbEntity
  8
VISIBLE
100
AcDbSpline
210
0.0
220
0.0
230
1.0
 70
     8
 71
     2
 72
     6
 73
     3
 74
     0
 42
0.000000001
 43
0.00000001
 40
0.0
 40
0.0
 40
0.0
 40
1.0
 40
1.0
 40
1.0
 10
-203.0624028621837
 20
20.30862651268647
 30
0.0
 10
-203.861556508017
 20
19.44274109601981
 30
0.0
 10
-205.2222335913503
 20
19.26044942935314
 30
0.0
  0
LINE
  5
100001E8
102
{ACAD_XDICTIONARY
360
100001E9
102
}
330
1F
100
AcDbEntity
  8
VISIBLE
100
AcDbLine
 10
-205.2222335913503
 20
19.26044942935314
 30
0.0
 11
-205.2222335913503
 21
19.15953797101981
 31
0.0
  0
SPLINE
  5
100001EB
102
{ACAD_XDICTIONARY
360
100001EC
102
}
330
1F
100
AcDbEntity
  8
VISIBLE
100
AcDbSpline
210
0.0
220
0.0
230
1.0
 70
     8
 71
     2
 72
     6
 73
     3
 74
     0
 42
0.000000001
 43
0.00000001
 40
0.0
 40
0.0
 40
0.0
 40
1.0
 40
1.0
 40
1.0
 10
-205.2222335913503
 20
19.15953797101981
 30
0.0
 10
-201.8465825496837
 20
18.60940776268648
 30
0.0
 10
-201.8465825496837
 20
15.67972026268649
 30
0.0
  0
SPLINE
  5
100001EE
102
{ACAD_XDICTIONARY
360
100001EF
102
}
330
1F
100
AcDbEntity
  8
VISIBLE
100
AcDbSpline
210
0.0
220
0.0
230
1.0
 70
     8
 71
     2
 72
     6
 73
     3
 74
     0
 42
0.000000001
 43
0.00000001
 40
0.0
 40
0.0
 40
0.0
 40
1.0
 40
1.0
 40
1.0
 10
-201.8465825496837
 20
15.67972026268649
 30
0.0
 10
-201.8465825496837
 20
13.66474630435316
 30
0.0
 10
-203.143783070517
 20
12.51565776268649
 30
0.0
  0
SPLINE
  5
100001F1
102
{ACAD_XDICTIONARY
360
100001F2
102
}
330
1F
100
AcDbEntity
  8
VISIBLE
100
AcDbSpline
210
0.0
220
0.0
230
1.0
 70
     8
 71
     2
 72
     6
 73
     3
 74
     0
 42
0.000000001
 43
0.00000001
 40
0.0
 40
0.0
 40
0.0
 40
1.0
 40
1.0
 40
1.0
 10
-203.143783070517
 20
12.51565776268649
 30
0.0
 10
-204.4409835913503
 20
11.36656922101983
 30
0.0
 10
-206.6773117163503
 20
11.36656922101983
 30
0.0
  0
LINE
  5
100001F4
102
{ACAD_XDICTIONARY
360
100001F5
102
}
330
1F
100
AcDbEntity
  8
VISIBLE
100
AcDbLine
 10
-206.6773117163503
 20
11.36656922101983
 30
0.0
 11
-212.0386398413503
 21
11.36656922101983
 31
0.0
  0
ENDSEC
  0
SECTION
  2
OBJECTS
  0
DICTIONARY
  5
C
330
0
100
AcDbDictionary
  3
ACAD_GROUP
350
D
  3
ACAD_LAYOUT
350
1A
  3
ACAD_MATERIAL
350
43
  3
ACAD_MLEADERSTYLE
350
6B
  3
ACAD_MLINESTYLE
350
17
  3
ACAD_PLOTSETTINGS
350
19
  3
ACAD_SCALELIST
350
47
  3
ACAD_VISUALSTYLE
350
2A
  3
ACDBHEADERROUNDTRIPXREC
350
100001F9
  3
ACDBVARIABLEDICTIONARY
350
1000021A
  3
DWGPROPS
350
10000225
  3
ONSHAPE_DATA
350
10000001
  0
DICTIONARY
  5
10000226
330
8
100
AcDbDictionary
280
     1
  3
ACAD_XREC_ROUNDTRIP
360
10000227
  0
DICTIONARY
  5
100001F7
330
1F
100
AcDbDictionary
280
     1
  3
ACAD_SORTENTS
360
100001F8
  0
DICTIONARY
  5
10000052
330
10000051
100
AcDbDictionary
280
     1
  3
BTDETID
360
10000053
  0
DICTIONARY
  5
10000055
330
10000054
100
AcDbDictionary
280
     1
  3
BTDETID
360
10000056
  0
DICTIONARY
  5
10000058
330
10000057
100
AcDbDictionary
280
     1
  3
BTDETID
360
10000059
  0
DICTIONARY
  5
1000005B
330
1000005A
100
AcDbDictionary
280
     1
  3
BTDETID
360
1000005C
  0
DICTIONARY
  5
1000005E
330
1000005D
100
AcDbDictionary
280
     1
  3
BTDETID
360
1000005F
  0
DICTIONARY
  5
10000061
330
10000060
100
AcDbDictionary
280
     1
  3
BTDETID
360
10000062
  0
DICTIONARY
  5
10000064
330
10000063
100
AcDbDictionary
280
     1
  3
BTDETID
360
10000065
  0
DICTIONARY
  5
10000067
330
10000066
100
AcDbDictionary
280
     1
  3
BTDETID
360
10000068
  0
DICTIONARY
  5
1000006A
330
10000069
100
AcDbDictionary
280
     1
  3
BTDETID
360
1000006B
  0
DICTIONARY
  5
1000006D
330
1000006C
100
AcDbDictionary
280
     1
  3
BTDETID
360
1000006E
  0
DICTIONARY
  5
10000070
330
1000006F
100
AcDbDictionary
280
     1
  3
BTDETID
360
10000071
  0
DICTIONARY
  5
10000073
330
10000072
100
AcDbDictionary
280
     1
  3
BTDETID
360
10000074
  0
DICTIONARY
  5
10000076
330
10000075
100
AcDbDictionary
280
     1
  3
BTDETID
360
10000077
  0
DICTIONARY
  5
10000079
330
10000078
100
AcDbDictionary
280
     1
  3
BTDETID
360
1000007A
  0
DICTIONARY
  5
1000007C
330
1000007B
100
AcDbDictionary
280
     1
  3
BTDETID
360
1000007D
  0
DICTIONARY
  5
1000007F
330
1000007E
100
AcDbDictionary
280
     1
  3
BTDETID
360
10000080
  0
DICTIONARY
  5
10000082
330
10000081
100
AcDbDictionary
280
     1
  3
BTDETID
360
10000083
  0
DICTIONARY
  5
10000085
330
10000084
100
AcDbDictionary
280
     1
  3
BTDETID
360
10000086
  0
DICTIONARY
  5
10000088
330
10000087
100
AcDbDictionary
280
     1
  3
BTDETID
360
10000089
  0
DICTIONARY
  5
1000008B
330
1000008A
100
AcDbDictionary
280
     1
  3
BTDETID
360
1000008C
  0
DICTIONARY
  5
1000008E
330
1000008D
100
AcDbDictionary
280
     1
  3
BTDETID
360
1000008F
  0
DICTIONARY
  5
10000091
330
10000090
100
AcDbDictionary
280
     1
  3
BTDETID
360
10000092
  0
DICTIONARY
  5
10000094
330
10000093
100
AcDbDictionary
280
     1
  3
BTDETID
360
10000095
  0
DICTIONARY
  5
10000097
330
10000096
100
AcDbDictionary
280
     1
  3
BTDETID
360
10000098
  0
DICTIONARY
  5
1000009A
330
10000099
100
AcDbDictionary
280
     1
  3
BTDETID
360
1000009B
  0
DICTIONARY
  5
1000009D
330
1000009C
100
AcDbDictionary
280
     1
  3
BTDETID
360
1000009E
  0
DICTIONARY
  5
100000A0
330
1000009F
100
AcDbDictionary
280
     1
  3
BTDETID
360
100000A1
  0
DICTIONARY
  5
100000A3
330
100000A2
100
AcDbDictionary
280
     1
  3
BTDETID
360
100000A4
  0
DICTIONARY
  5
100000A6
330
100000A5
100
AcDbDictionary
280
     1
  3
BTDETID
360
100000A7
  0
DICTIONARY
  5
100000A9
330
100000A8
100
AcDbDictionary
280
     1
  3
BTDETID
360
100000AA
  0
DICTIONARY
  5
100000AC
330
100000AB
100
AcDbDictionary
280
     1
  3
BTDETID
360
100000AD
  0
DICTIONARY
  5
100000AF
330
100000AE
100
AcDbDictionary
280
     1
  3
BTDETID
360
100000B0
  0
DICTIONARY
  5
100000B2
330
100000B1
100
AcDbDictionary
280
     1
  3
BTDETID
360
100000B3
  0
DICTIONARY
  5
100000B5
330
100000B4
100
AcDbDictionary
280
     1
  3
BTDETID
360
100000B6
  0
DICTIONARY
  5
100000B8
330
100000B7
100
AcDbDictionary
280
     1
  3
BTARCONSURFACERADIUS
360
100000BB
  3
BTDETID
360
100000B9
  3
BTOWNERFACEID_
360
100000BA
  0
DICTIONARY
  5
100000BD
330
100000BC
100
AcDbDictionary
280
     1
  3
BTARCONSURFACERADIUS
360
100000C0
  3
BTDETID
360
100000BE
  3
BTOWNERFACEID_
360
100000BF
  0
DICTIONARY
  5
100000C2
330
100000C1
100
AcDbDictionary
280
     1
  3
BTARCONSURFACERADIUS
360
100000C5
  3
BTDETID
360
100000C3
  3
BTOWNERFACEID_
360
100000C4
  0
DICTIONARY
  5
100000C7
330
100000C6
100
AcDbDictionary
280
     1
  3
BTARCONSURFACERADIUS
360
100000CA
  3
BTDETID
360
100000C8
  3
BTOWNERFACEID_
360
100000C9
  0
DICTIONARY
  5
100000CC
330
100000CB
100
AcDbDictionary
280
     1
  3
BTDETID
360
100000CD
  0
DICTIONARY
  5
100000CF
330
100000CE
100
AcDbDictionary
280
     1
  3
BTDETID
360
100000D0
  0
DICTIONARY
  5
100000D2
330
100000D1
100
AcDbDictionary
280
     1
  3
BTDETID
360
100000D3
  0
DICTIONARY
  5
100000D5
330
100000D4
100
AcDbDictionary
280
     1
  3
BTDETID
360
100000D6
  0
DICTIONARY
  5
100000D8
330
100000D7
100
AcDbDictionary
280
     1
  3
BTDETID
360
100000D9
  0
DICTIONARY
  5
100000DB
330
100000DA
100
AcDbDictionary
280
     1
  3
BTDETID
360
100000DC
  0
DICTIONARY
  5
100000DE
330
100000DD
100
AcDbDictionary
280
     1
  3
BTDETID
360
100000DF
  0
DICTIONARY
  5
100000E1
330
100000E0
100
AcDbDictionary
280
     1
  3
BTDETID
360
100000E2
  0
DICTIONARY
  5
100000E4
330
100000E3
100
AcDbDictionary
280
     1
  3
BTDETID
360
100000E5
  0
DICTIONARY
  5
100000E7
330
100000E6
100
AcDbDictionary
280
     1
  3
BTDETID
360
100000E8
  0
DICTIONARY
  5
100000EA
330
100000E9
100
AcDbDictionary
280
     1
  3
BTDETID
360
100000EB
  0
DICTIONARY
  5
100000ED
330
100000EC
100
AcDbDictionary
280
     1
  3
BTDETID
360
100000EE
  0
DICTIONARY
  5
100000F0
330
100000EF
100
AcDbDictionary
280
     1
  3
BTDETID
360
100000F1
  0
DICTIONARY
  5
100000F3
330
100000F2
100
AcDbDictionary
280
     1
  3
BTDETID
360
100000F4
  0
DICTIONARY
  5
100000F6
330
100000F5
100
AcDbDictionary
280
     1
  3
BTDETID
360
100000F7
  0
DICTIONARY
  5
100000F9
330
100000F8
100
AcDbDictionary
280
     1
  3
BTDETID
360
100000FA
  0
DICTIONARY
  5
100000FC
330
100000FB
100
AcDbDictionary
280
     1
  3
BTDETID
360
100000FD
  0
DICTIONARY
  5
100000FF
330
100000FE
100
AcDbDictionary
280
     1
  3
BTDETID
360
10000100
  0
DICTIONARY
  5
10000102
330
10000101
100
AcDbDictionary
280
     1
  3
BTDETID
360
10000103
  0
DICTIONARY
  5
10000105
330
10000104
100
AcDbDictionary
280
     1
  3
BTDETID
360
10000106
  0
DICTIONARY
  5
10000108
330
10000107
100
AcDbDictionary
280
     1
  3
BTDETID
360
10000109
  0
DICTIONARY
  5
1000010B
330
1000010A
100
AcDbDictionary
280
     1
  3
BTDETID
360
1000010C
  0
DICTIONARY
  5
1000010E
330
1000010D
100
AcDbDictionary
280
     1
  3
BTDETID
360
1000010F
  0
DICTIONARY
  5
10000111
330
10000110
100
AcDbDictionary
280
     1
  3
BTDETID
360
10000112
  0
DICTIONARY
  5
10000114
330
10000113
100
AcDbDictionary
280
     1
  3
BTDETID
360
10000115
  0
DICTIONARY
  5
10000117
330
10000116
100
AcDbDictionary
280
     1
  3
BTDETID
360
10000118
  0
DICTIONARY
  5
1000011A
330
10000119
100
AcDbDictionary
280
     1
  3
BTDETID
360
1000011B
  0
DICTIONARY
  5
1000011D
330
1000011C
100
AcDbDictionary
280
     1
  3
BTDETID
360
1000011E
  0
DICTIONARY
  5
10000120
330
1000011F
100
AcDbDictionary
280
     1
  3
BTDETID
360
10000121
  0
DICTIONARY
  5
10000123
330
10000122
100
AcDbDictionary
280
     1
  3
BTDETID
360
10000124
  0
DICTIONARY
  5
10000126
330
10000125
100
AcDbDictionary
280
     1
  3
BTDETID
360
10000127
  0
DICTIONARY
  5
10000129
330
10000128
100
AcDbDictionary
280
     1
  3
BTDETID
360
1000012A
  0
DICTIONARY
  5
1000012C
330
1000012B
100
AcDbDictionary
280
     1
  3
BTDETID
360
1000012D
  0
DICTIONARY
  5
1000012F
330
1000012E
100
AcDbDictionary
280
     1
  3
BTDETID
360
10000130
  0
DICTIONARY
  5
10000132
330
10000131
100
AcDbDictionary
280
     1
  3
BTDETID
360
10000133
  0
DICTIONARY
  5
10000135
330
10000134
100
AcDbDictionary
280
     1
  3
BTDETID
360
10000136
  0
DICTIONARY
  5
10000138
330
10000137
100
AcDbDictionary
280
     1
  3
BTDETID
360
10000139
  0
DICTIONARY
  5
1000013B
330
1000013A
100
AcDbDictionary
280
     1
  3
BTDETID
360
1000013C
  0
DICTIONARY
  5
1000013E
330
1000013D
100
AcDbDictionary
280
     1
  3
BTDETID
360
1000013F
  0
DICTIONARY
  5
10000141
330
10000140
100
AcDbDictionary
280
     1
  3
BTDETID
360
10000142
  0
DICTIONARY
  5
10000144
330
10000143
100
AcDbDictionary
280
     1
  3
BTDETID
360
10000145
  0
DICTIONARY
  5
10000147
330
10000146
100
AcDbDictionary
280
     1
  3
BTDETID
360
10000148
  0
DICTIONARY
  5
1000014A
330
10000149
100
AcDbDictionary
280
     1
  3
BTDETID
360
1000014B
  0
DICTIONARY
  5
1000014D
330
1000014C
100
AcDbDictionary
280
     1
  3
BTDETID
360
1000014E
  0
DICTIONARY
  5
10000150
330
1000014F
100
AcDbDictionary
280
     1
  3
BTDETID
360
10000151
  0
DICTIONARY
  5
10000153
330
10000152
100
AcDbDictionary
280
     1
  3
BTDETID
360
10000154
  0
DICTIONARY
  5
10000156
330
10000155
100
AcDbDictionary
280
     1
  3
BTDETID
360
10000157
  0
DICTIONARY
  5
10000159
330
10000158
100
AcDbDictionary
280
     1
  3
BTDETID
360
1000015A
  0
DICTIONARY
  5
1000015C
330
1000015B
100
AcDbDictionary
280
     1
  3
BTDETID
360
1000015D
  0
DICTIONARY
  5
1000015F
330
1000015E
100
AcDbDictionary
280
     1
  3
BTDETID
360
10000160
  0
DICTIONARY
  5
10000162
330
10000161
100
AcDbDictionary
280
     1
  3
BTDETID
360
10000163
  0
DICTIONARY
  5
10000165
330
10000164
100
AcDbDictionary
280
     1
  3
BTDETID
360
10000166
  0
DICTIONARY
  5
10000168
330
10000167
100
AcDbDictionary
280
     1
  3
BTDETID
360
10000169
  0
DICTIONARY
  5
1000016B
330
1000016A
100
AcDbDictionary
280
     1
  3
BTDETID
360
1000016C
  0
DICTIONARY
  5
1000016E
330
1000016D
100
AcDbDictionary
280
     1
  3
BTDETID
360
1000016F
  0
DICTIONARY
  5
10000171
330
10000170
100
AcDbDictionary
280
     1
  3
BTDETID
360
10000172
  0
DICTIONARY
  5
10000174
330
10000173
100
AcDbDictionary
280
     1
  3
BTDETID
360
10000175
  0
DICTIONARY
  5
10000177
330
10000176
100
AcDbDictionary
280
     1
  3
BTDETID
360
10000178
  0
DICTIONARY
  5
1000017A
330
10000179
100
AcDbDictionary
280
     1
  3
BTDETID
360
1000017B
  0
DICTIONARY
  5
1000017D
330
1000017C
100
AcDbDictionary
280
     1
  3
BTDETID
360
1000017E
  0
DICTIONARY
  5
10000180
330
1000017F
100
AcDbDictionary
280
     1
  3
BTDETID
360
10000181
  0
DICTIONARY
  5
10000183
330
10000182
100
AcDbDictionary
280
     1
  3
BTDETID
360
10000184
  0
DICTIONARY
  5
10000186
330
10000185
100
AcDbDictionary
280
     1
  3
BTDETID
360
10000187
  0
DICTIONARY
  5
10000189
330
10000188
100
AcDbDictionary
280
     1
  3
BTDETID
360
1000018A
  0
DICTIONARY
  5
1000018C
330
1000018B
100
AcDbDictionary
280
     1
  3
BTDETID
360
1000018D
  0
DICTIONARY
  5
1000018F
330
1000018E
100
AcDbDictionary
280
     1
  3
BTDETID
360
10000190
  0
DICTIONARY
  5
10000192
330
10000191
100
AcDbDictionary
280
     1
  3
BTDETID
360
10000193
  0
DICTIONARY
  5
10000195
330
10000194
100
AcDbDictionary
280
     1
  3
BTDETID
360
10000196
  0
DICTIONARY
  5
10000198
330
10000197
100
AcDbDictionary
280
     1
  3
BTDETID
360
10000199
  0
DICTIONARY
  5
1000019B
330
1000019A
100
AcDbDictionary
280
     1
  3
BTDETID
360
1000019C
  0
DICTIONARY
  5
1000019E
330
1000019D
100
AcDbDictionary
280
     1
  3
BTDETID
360
1000019F
  0
DICTIONARY
  5
100001A1
330
100001A0
100
AcDbDictionary
280
     1
  3
BTDETID
360
100001A2
  0
DICTIONARY
  5
100001A4
330
100001A3
100
AcDbDictionary
280
     1
  3
BTDETID
360
100001A5
  0
DICTIONARY
  5
100001A7
330
100001A6
100
AcDbDictionary
280
     1
  3
BTDETID
360
100001A8
  0
DICTIONARY
  5
100001AA
330
100001A9
100
AcDbDictionary
280
     1
  3
BTDETID
360
100001AB
  0
DICTIONARY
  5
100001AD
330
100001AC
100
AcDbDictionary
280
     1
  3
BTDETID
360
100001AE
  0
DICTIONARY
  5
100001B0
330
100001AF
100
AcDbDictionary
280
     1
  3
BTDETID
360
100001B1
  0
DICTIONARY
  5
100001B3
330
100001B2
100
AcDbDictionary
280
     1
  3
BTDETID
360
100001B4
  0
DICTIONARY
  5
100001B6
330
100001B5
100
AcDbDictionary
280
     1
  3
BTDETID
360
100001B7
  0
DICTIONARY
  5
100001B9
330
100001B8
100
AcDbDictionary
280
     1
  3
BTDETID
360
100001BA
  0
DICTIONARY
  5
100001BC
330
100001BB
100
AcDbDictionary
280
     1
  3
BTDETID
360
100001BD
  0
DICTIONARY
  5
100001BF
330
100001BE
100
AcDbDictionary
280
     1
  3
BTDETID
360
100001C0
  0
DICTIONARY
  5
100001C2
330
100001C1
100
AcDbDictionary
280
     1
  3
BTDETID
360
100001C3
  0
DICTIONARY
  5
100001C5
330
100001C4
100
AcDbDictionary
280
     1
  3
BTDETID
360
100001C6
  0
DICTIONARY
  5
100001C8
330
100001C7
100
AcDbDictionary
280
     1
  3
BTDETID
360
100001C9
  0
DICTIONARY
  5
100001CB
330
100001CA
100
AcDbDictionary
280
     1
  3
BTDETID
360
100001CC
  0
DICTIONARY
  5
100001CE
330
100001CD
100
AcDbDictionary
280
     1
  3
BTDETID
360
100001CF
  0
DICTIONARY
  5
100001D1
330
100001D0
100
AcDbDictionary
280
     1
  3
BTDETID
360
100001D2
  0
DICTIONARY
  5
100001D4
330
100001D3
100
AcDbDictionary
280
     1
  3
BTDETID
360
100001D5
  0
DICTIONARY
  5
100001D7
330
100001D6
100
AcDbDictionary
280
     1
  3
BTDETID
360
100001D8
  0
DICTIONARY
  5
100001DA
330
100001D9
100
AcDbDictionary
280
     1
  3
BTDETID
360
100001DB
  0
DICTIONARY
  5
100001DD
330
100001DC
100
AcDbDictionary
280
     1
  3
BTDETID
360
100001DE
  0
DICTIONARY
  5
100001E0
330
100001DF
100
AcDbDictionary
280
     1
  3
BTDETID
360
100001E1
  0
DICTIONARY
  5
100001E3
330
100001E2
100
AcDbDictionary
280
     1
  3
BTDETID
360
100001E4
  0
DICTIONARY
  5
100001E6
330
100001E5
100
AcDbDictionary
280
     1
  3
BTDETID
360
100001E7
  0
DICTIONARY
  5
100001E9
330
100001E8
100
AcDbDictionary
280
     1
  3
BTDETID
360
100001EA
  0
DICTIONARY
  5
100001EC
330
100001EB
100
AcDbDictionary
280
     1
  3
BTDETID
360
100001ED
  0
DICTIONARY
  5
100001EF
330
100001EE
100
AcDbDictionary
280
     1
  3
BTDETID
360
100001F0
  0
DICTIONARY
  5
100001F2
330
100001F1
100
AcDbDictionary
280
     1
  3
BTDETID
360
100001F3
  0
DICTIONARY
  5
100001F5
330
100001F4
100
AcDbDictionary
280
     1
  3
BTDETID
360
100001F6
  0
DICTIONARY
  5
D
102
{ACAD_REACTORS
330
C
102
}
330
C
100
AcDbDictionary
  0
DICTIONARY
  5
1A
102
{ACAD_REACTORS
330
C
102
}
330
C
100
AcDbDictionary
  0
DICTIONARY
  5
43
102
{ACAD_REACTORS
330
C
102
}
330
C
100
AcDbDictionary
  3
BYBLOCK
350
45
  3
BYLAYER
350
44
  3
GLOBAL
350
46
  0
DICTIONARY
  5
6B
102
{ACAD_REACTORS
330
C
102
}
330
C
100
AcDbDictionary
  3
STANDARD
350
6C
  0
DICTIONARY
  5
17
102
{ACAD_REACTORS
330
C
102
}
330
C
100
AcDbDictionary
  3
STANDARD
350
18
  0
DICTIONARY
  5
19
102
{ACAD_REACTORS
330
C
102
}
330
C
100
AcDbDictionary
  0
DICTIONARY
  5
47
102
{ACAD_REACTORS
330
C
102
}
330
C
100
AcDbDictionary
  3
SCALE100_1
350
10000023
  3
SCALE10_1
350
1000001D
  3
SCALE12_1
350
1000001E
  3
SCALE16_1
350
1000001F
  3
SCALE1_1
350
10000006
  3
SCALE1_10
350
1000000D
  3
SCALE1_100
350
10000016
  3
SCALE1_12
350
1000000E
  3
SCALE1_16
350
1000000F
  3
SCALE1_2
350
10000007
  3
SCALE1_20
350
10000010
  3
SCALE1_25
350
10000011
  3
SCALE1_3
350
10000008
  3
SCALE1_32
350
10000012
  3
SCALE1_4
350
10000009
  3
SCALE1_40
350
10000013
  3
SCALE1_5
350
1000000A
  3
SCALE1_50
350
10000014
  3
SCALE1_6
350
1000000B
  3
SCALE1_8
350
1000000C
  3
SCALE1_80
350
10000015
  3
SCALE20_1
350
10000020
  3
SCALE2_1
350
10000017
  3
SCALE32_1
350
10000021
  3
SCALE3_1
350
10000018
  3
SCALE4_1
350
10000019
  3
SCALE50_1
350
10000022
  3
SCALE5_1
350
1000001A
  3
SCALE6_1
350
1000001B
  3
SCALE8_1
350
1000001C
  0
DICTIONARY
  5
2A
102
{ACAD_REACTORS
330
C
102
}
330
C
100
AcDbDictionary
  3
2DWIREFRAME
350
2F
  3
BASIC
350
32
  3
BRIGHTEN
350
36
  3
COLORCHANGE
350
3A
  3
CONCEPTUAL
350
34
  3
DIM
350
35
  3
EDGECOLOROFF
350
3D
  3
FACEPATTERN
350
39
  3
FLAT
350
2B
  3
FLATWITHEDGES
350
2C
  3
GOURAUD
350
2D
  3
GOURAUDWITHEDGES
350
2E
  3
HIDDEN
350
31
  3
JITTEROFF
350
3B
  3
LINEPATTERN
350
38
  3
OVERHANGOFF
350
3C
  3
REALISTIC
350
33
  3
SHADED
350
42
  3
SHADED_WITH_EDGES
350
41
  3
SHADES_OF_GRAY
350
3E
  3
SKETCHY
350
3F
  3
THICKEN
350
37
  3
WIREFRAME
350
30
  3
X-RAY
350
40
  0
DICTIONARY
  5
100001F9
102
{ACAD_REACTORS
330
C
102
}
330
C
100
AcDbDictionary
  3
CEPSNID
350
10000203
  3
CEPSNTYPE
350
10000202
  3
DIMSTYLEDATA
350
10000219
  3
FINGERPRINTGUID
350
10000204
  3
HYPERLINKBASE
350
100001FC
  3
INSUNITS
350
10000201
  3
LAYOUTDICT
350
100001FE
  3
LWETCUNION
350
10000200
  3
PLOTSETDICT
350
100001FF
  3
PSVPSCALE
350
10000206
  3
PUCSBASE
350
10000209
  3
PUCSORGBACK
350
1000020F
  3
PUCSORGBOTTOM
350
1000020B
  3
PUCSORGFRONT
350
1000020E
  3
PUCSORGLEFT
350
1000020C
  3
PUCSORGRIGHT
350
1000020D
  3
PUCSORGTOP
350
1000020A
  3
PUCSORTHOREF
350
10000207
  3
PUCSORTHOVIEW
350
10000208
  3
STYLESHEET
350
100001FD
  3
TSTACKALIGN
350
100001FA
  3
TSTACKSIZE
350
100001FB
  3
UCSBASE
350
10000212
  3
UCSORGBACK
350
10000218
  3
UCSORGBOTTOM
350
10000214
  3
UCSORGFRONT
350
10000217
  3
UCSORGLEFT
350
10000215
  3
UCSORGRIGHT
350
10000216
  3
UCSORGTOP
350
10000213
  3
UCSORTHOREF
350
10000210
  3
UCSORTHOVIEW
350
10000211
  3
VERSIONGUID
350
10000205
  0
DICTIONARY
  5
1000021A
102
{ACAD_REACTORS
330
C
102
}
330
C
100
AcDbDictionary
  3
CANNOSCALE
350
10000228
  3
CENTEREXE
350
10000221
  3
CENTERLTYPEFILE
350
10000222
  3
CMLEADERSTYLE
350
1000021C
  3
CTABLESTYLE
350
1000021B
  3
DIMASSOC
350
10000223
  3
HIDETEXT
350
10000224
  3
MSLTSCALE
350
10000229
  3
PSOLHEIGHT
350
1000021E
  3
PSOLWIDTH
350
1000021D
  0
XRECORD
  5
10000225
102
{ACAD_REACTORS
330
C
102
}
330
C
100
AcDbXrecord
  1
DWGPROPS COOKIE
  2

  3

  4

  6
File was created by BTDwgCreate
  7

  8

  9

300
=
301
=
302
=
303
=
304
=
305
=
306
=
307
=
308
=
309
=
 40
0.0
 41
2460665.103352407
 42
2460665.103352419
  1

 90
        0
  0
DICTIONARY
  5
10000001
102
{ACAD_REACTORS
330
C
102
}
330
C
100
AcDbDictionary
280
     1
  3
DIM_UNITS
360
10000003
  3
DWGGEN_VERSION
360
10000002
  3
FIRST_ANGLE
360
10000005
  0
XRECORD
  5
10000227
102
{ACAD_REACTORS
330
10000226
102
}
330
10000226
100
AcDbXrecord
102
VTR_0.000_0.000_1.000_1.000_VISUALSTYLE
340
2F
102
VTR_0.000_0.000_1.000_1.000_GRIDDISPLAY
 70
     3
102
VTR_0.000_0.000_1.000_1.000_GRIDMAJOR
 70
     5
102
VTR_0.000_0.000_1.000_1.000_DEFAULTLIGHTING
280
     1
102
VTR_0.000_0.000_1.000_1.000_DEFAULTLIGHTINGTYPE
 70
     1
102
VTR_0.000_0.000_1.000_1.000_BRIGHTNESS
141
0.0
102
VTR_0.000_0.000_1.000_1.000_CONTRAST
142
0.0
  0
SORTENTSTABLE
  5
100001F8
102
{ACAD_REACTORS
330
100001F7
102
}
330
100001F7
100
AcDbSortentsTable
330
1F
  0
XRECORD
  5
10000053
102
{ACAD_REACTORS
330
10000052
102
}
330
10000052
100
AcDbXrecord
1000
KMtI
  0
XRECORD
  5
10000056
102
{ACAD_REACTORS
330
10000055
102
}
330
10000055
100
AcDbXrecord
1000
KMdI
  0
XRECORD
  5
10000059
102
{ACAD_REACTORS
330
10000058
102
}
330
10000058
100
AcDbXrecord
1000
KM1I
  0
XRECORD
  5
1000005C
102
{ACAD_REACTORS
330
1000005B
102
}
330
1000005B
100
AcDbXrecord
1000
KMlI
  0
XRECORD
  5
1000005F
102
{ACAD_REACTORS
330
1000005E
102
}
330
1000005E
100
AcDbXrecord
1000
KM9L
  0
XRECORD
  5
10000062
102
{ACAD_REACTORS
330
10000061
102
}
330
10000061
100
AcDbXrecord
1000
KMlK
  0
XRECORD
  5
10000065
102
{ACAD_REACTORS
330
10000064
102
}
330
10000064
100
AcDbXrecord
1000
KMtK
  0
XRECORD
  5
10000068
102
{ACAD_REACTORS
330
10000067
102
}
330
10000067
100
AcDbXrecord
1000
KM1K
  0
XRECORD
  5
1000006B
102
{ACAD_REACTORS
330
1000006A
102
}
330
1000006A
100
AcDbXrecord
1000
KM9K
  0
XRECORD
  5
1000006E
102
{ACAD_REACTORS
330
1000006D
102
}
330
1000006D
100
AcDbXrecord
1000
KMFL
  0
XRECORD
  5
10000071
102
{ACAD_REACTORS
330
10000070
102
}
330
10000070
100
AcDbXrecord
1000
KMNL
  0
XRECORD
  5
10000074
102
{ACAD_REACTORS
330
10000073
102
}
330
10000073
100
AcDbXrecord
1000
KMVL
  0
XRECORD
  5
10000077
102
{ACAD_REACTORS
330
10000076
102
}
330
10000076
100
AcDbXrecord
1000
KMdL
  0
XRECORD
  5
1000007A
102
{ACAD_REACTORS
330
10000079
102
}
330
10000079
100
AcDbXrecord
1000
KMlL
  0
XRECORD
  5
1000007D
102
{ACAD_REACTORS
330
1000007C
102
}
330
1000007C
100
AcDbXrecord
1000
KMtL
  0
XRECORD
  5
10000080
102
{ACAD_REACTORS
330
1000007F
102
}
330
1000007F
100
AcDbXrecord
1000
KM1L
  0
XRECORD
  5
10000083
102
{ACAD_REACTORS
330
10000082
102
}
330
10000082
100
AcDbXrecord
1000
KMlR
  0
XRECORD
  5
10000086
102
{ACAD_REACTORS
330
10000085
102
}
330
10000085
100
AcDbXrecord
1000
KMdP
  0
XRECORD
  5
10000089
102
{ACAD_REACTORS
330
10000088
102
}
330
10000088
100
AcDbXrecord
1000
KMlP
  0
XRECORD
  5
1000008C
102
{ACAD_REACTORS
330
1000008B
102
}
330
1000008B
100
AcDbXrecord
1000
KMtP
  0
XRECORD
  5
1000008F
102
{ACAD_REACTORS
330
1000008E
102
}
330
1000008E
100
AcDbXrecord
1000
KM1P
  0
XRECORD
  5
10000092
102
{ACAD_REACTORS
330
10000091
102
}
330
10000091
100
AcDbXrecord
1000
KM9P
  0
XRECORD
  5
10000095
102
{ACAD_REACTORS
330
10000094
102
}
330
10000094
100
AcDbXrecord
1000
KMFQ
  0
XRECORD
  5
10000098
102
{ACAD_REACTORS
330
10000097
102
}
330
10000097
100
AcDbXrecord
1000
KMNQ
  0
XRECORD
  5
1000009B
102
{ACAD_REACTORS
330
1000009A
102
}
330
1000009A
100
AcDbXrecord
1000
KMVQ
  0
XRECORD
  5
1000009E
102
{ACAD_REACTORS
330
1000009D
102
}
330
1000009D
100
AcDbXrecord
1000
KMdQ
  0
XRECORD
  5
100000A1
102
{ACAD_REACTORS
330
100000A0
102
}
330
100000A0
100
AcDbXrecord
1000
KMlQ
  0
XRECORD
  5
100000A4
102
{ACAD_REACTORS
330
100000A3
102
}
330
100000A3
100
AcDbXrecord
1000
KMtQ
  0
XRECORD
  5
100000A7
102
{ACAD_REACTORS
330
100000A6
102
}
330
100000A6
100
AcDbXrecord
1000
KM1Q
  0
XRECORD
  5
100000AA
102
{ACAD_REACTORS
330
100000A9
102
}
330
100000A9
100
AcDbXrecord
1000
KM9Q
  0
XRECORD
  5
100000AD
102
{ACAD_REACTORS
330
100000AC
102
}
330
100000AC
100
AcDbXrecord
1000
KMFR
  0
XRECORD
  5
100000B0
102
{ACAD_REACTORS
330
100000AF
102
}
330
100000AF
100
AcDbXrecord
1000
KMNR
  0
XRECORD
  5
100000B3
102
{ACAD_REACTORS
330
100000B2
102
}
330
100000B2
100
AcDbXrecord
1000
KMVR
  0
XRECORD
  5
100000B6
102
{ACAD_REACTORS
330
100000B5
102
}
330
100000B5
100
AcDbXrecord
1000
KMdR
  0
XRECORD
  5
100000BB
102
{ACAD_REACTORS
330
100000B8
102
}
330
100000B8
100
AcDbXrecord
 40
1.500000000000001
  0
XRECORD
  5
100000B9
102
{ACAD_REACTORS
330
100000B8
102
}
330
100000B8
100
AcDbXrecord
1000
KMlZ
  0
XRECORD
  5
100000BA
102
{ACAD_REACTORS
330
100000B8
102
}
330
100000B8
100
AcDbXrecord
1000
JMK
  0
XRECORD
  5
100000C0
102
{ACAD_REACTORS
330
100000BD
102
}
330
100000BD
100
AcDbXrecord
 40
1.500000000000001
  0
XRECORD
  5
100000BE
102
{ACAD_REACTORS
330
100000BD
102
}
330
100000BD
100
AcDbXrecord
1000
KMdZ
  0
XRECORD
  5
100000BF
102
{ACAD_REACTORS
330
100000BD
102
}
330
100000BD
100
AcDbXrecord
1000
JMK
  0
XRECORD
  5
100000C5
102
{ACAD_REACTORS
330
100000C2
102
}
330
100000C2
100
AcDbXrecord
 40
2.750000000000003
  0
XRECORD
  5
100000C3
102
{ACAD_REACTORS
330
100000C2
102
}
330
100000C2
100
AcDbXrecord
1000
KMFJ
  0
XRECORD
  5
100000C4
102
{ACAD_REACTORS
330
100000C2
102
}
330
100000C2
100
AcDbXrecord
1000
JMK
  0
XRECORD
  5
100000CA
102
{ACAD_REACTORS
330
100000C7
102
}
330
100000C7
100
AcDbXrecord
 40
2.750000000000003
  0
XRECORD
  5
100000C8
102
{ACAD_REACTORS
330
100000C7
102
}
330
100000C7
100
AcDbXrecord
1000
KM9I
  0
XRECORD
  5
100000C9
102
{ACAD_REACTORS
330
100000C7
102
}
330
100000C7
100
AcDbXrecord
1000
JMK
  0
XRECORD
  5
100000CD
102
{ACAD_REACTORS
330
100000CC
102
}
330
100000CC
100
AcDbXrecord
1000
KMVZ
  0
XRECORD
  5
100000D0
102
{ACAD_REACTORS
330
100000CF
102
}
330
100000CF
100
AcDbXrecord
1000
KMtX
  0
XRECORD
  5
100000D3
102
{ACAD_REACTORS
330
100000D2
102
}
330
100000D2
100
AcDbXrecord
1000
KM1X
  0
XRECORD
  5
100000D6
102
{ACAD_REACTORS
330
100000D5
102
}
330
100000D5
100
AcDbXrecord
1000
KM9X
  0
XRECORD
  5
100000D9
102
{ACAD_REACTORS
330
100000D8
102
}
330
100000D8
100
AcDbXrecord
1000
KMFY
  0
XRECORD
  5
100000DC
102
{ACAD_REACTORS
330
100000DB
102
}
330
100000DB
100
AcDbXrecord
1000
KMNY
  0
XRECORD
  5
100000DF
102
{ACAD_REACTORS
330
100000DE
102
}
330
100000DE
100
AcDbXrecord
1000
KMVY
  0
XRECORD
  5
100000E2
102
{ACAD_REACTORS
330
100000E1
102
}
330
100000E1
100
AcDbXrecord
1000
KMdY
  0
XRECORD
  5
100000E5
102
{ACAD_REACTORS
330
100000E4
102
}
330
100000E4
100
AcDbXrecord
1000
KMlY
  0
XRECORD
  5
100000E8
102
{ACAD_REACTORS
330
100000E7
102
}
330
100000E7
100
AcDbXrecord
1000
KMtY
  0
XRECORD
  5
100000EB
102
{ACAD_REACTORS
330
100000EA
102
}
330
100000EA
100
AcDbXrecord
1000
KM1Y
  0
XRECORD
  5
100000EE
102
{ACAD_REACTORS
330
100000ED
102
}
330
100000ED
100
AcDbXrecord
1000
KM9Y
  0
XRECORD
  5
100000F1
102
{ACAD_REACTORS
330
100000F0
102
}
330
100000F0
100
AcDbXrecord
1000
KMFZ
  0
XRECORD
  5
100000F4
102
{ACAD_REACTORS
330
100000F3
102
}
330
100000F3
100
AcDbXrecord
1000
KMNZ
  0
XRECORD
  5
100000F7
102
{ACAD_REACTORS
330
100000F6
102
}
330
100000F6
100
AcDbXrecord
1000
KMlX
  0
XRECORD
  5
100000FA
102
{ACAD_REACTORS
330
100000F9
102
}
330
100000F9
100
AcDbXrecord
1000
KMdW
  0
XRECORD
  5
100000FD
102
{ACAD_REACTORS
330
100000FC
102
}
330
100000FC
100
AcDbXrecord
1000
KMlW
  0
XRECORD
  5
10000100
102
{ACAD_REACTORS
330
100000FF
102
}
330
100000FF
100
AcDbXrecord
1000
KMtW
  0
XRECORD
  5
10000103
102
{ACAD_REACTORS
330
10000102
102
}
330
10000102
100
AcDbXrecord
1000
KM1W
  0
XRECORD
  5
10000106
102
{ACAD_REACTORS
330
10000105
102
}
330
10000105
100
AcDbXrecord
1000
KM9W
  0
XRECORD
  5
10000109
102
{ACAD_REACTORS
330
10000108
102
}
330
10000108
100
AcDbXrecord
1000
KMFX
  0
XRECORD
  5
1000010C
102
{ACAD_REACTORS
330
1000010B
102
}
330
1000010B
100
AcDbXrecord
1000
KMNX
  0
XRECORD
  5
1000010F
102
{ACAD_REACTORS
330
1000010E
102
}
330
1000010E
100
AcDbXrecord
1000
KMVX
  0
XRECORD
  5
10000112
102
{ACAD_REACTORS
330
10000111
102
}
330
10000111
100
AcDbXrecord
1000
KMdX
  0
XRECORD
  5
10000115
102
{ACAD_REACTORS
330
10000114
102
}
330
10000114
100
AcDbXrecord
1000
KMVW
  0
XRECORD
  5
10000118
102
{ACAD_REACTORS
330
10000117
102
}
330
10000117
100
AcDbXrecord
1000
KM1V
  0
XRECORD
  5
1000011B
102
{ACAD_REACTORS
330
1000011A
102
}
330
1000011A
100
AcDbXrecord
1000
KM9V
  0
XRECORD
  5
1000011E
102
{ACAD_REACTORS
330
1000011D
102
}
330
1000011D
100
AcDbXrecord
1000
KMFW
  0
XRECORD
  5
10000121
102
{ACAD_REACTORS
330
10000120
102
}
330
10000120
100
AcDbXrecord
1000
KMNW
  0
XRECORD
  5
10000124
102
{ACAD_REACTORS
330
10000123
102
}
330
10000123
100
AcDbXrecord
1000
KMtV
  0
XRECORD
  5
10000127
102
{ACAD_REACTORS
330
10000126
102
}
330
10000126
100
AcDbXrecord
1000
KMNU
  0
XRECORD
  5
1000012A
102
{ACAD_REACTORS
330
10000129
102
}
330
10000129
100
AcDbXrecord
1000
KMVU
  0
XRECORD
  5
1000012D
102
{ACAD_REACTORS
330
1000012C
102
}
330
1000012C
100
AcDbXrecord
1000
KMdU
  0
XRECORD
  5
10000130
102
{ACAD_REACTORS
330
1000012F
102
}
330
1000012F
100
AcDbXrecord
1000
KMlU
  0
XRECORD
  5
10000133
102
{ACAD_REACTORS
330
10000132
102
}
330
10000132
100
AcDbXrecord
1000
KMtU
  0
XRECORD
  5
10000136
102
{ACAD_REACTORS
330
10000135
102
}
330
10000135
100
AcDbXrecord
1000
KM1U
  0
XRECORD
  5
10000139
102
{ACAD_REACTORS
330
10000138
102
}
330
10000138
100
AcDbXrecord
1000
KM9U
  0
XRECORD
  5
1000013C
102
{ACAD_REACTORS
330
1000013B
102
}
330
1000013B
100
AcDbXrecord
1000
KMFV
  0
XRECORD
  5
1000013F
102
{ACAD_REACTORS
330
1000013E
102
}
330
1000013E
100
AcDbXrecord
1000
KMNV
  0
XRECORD
  5
10000142
102
{ACAD_REACTORS
330
10000141
102
}
330
10000141
100
AcDbXrecord
1000
KMVV
  0
XRECORD
  5
10000145
102
{ACAD_REACTORS
330
10000144
102
}
330
10000144
100
AcDbXrecord
1000
KMdV
  0
XRECORD
  5
10000148
102
{ACAD_REACTORS
330
10000147
102
}
330
10000147
100
AcDbXrecord
1000
KMlV
  0
XRECORD
  5
1000014B
102
{ACAD_REACTORS
330
1000014A
102
}
330
1000014A
100
AcDbXrecord
1000
KMFU
  0
XRECORD
  5
1000014E
102
{ACAD_REACTORS
330
1000014D
102
}
330
1000014D
100
AcDbXrecord
1000
KMtR
  0
XRECORD
  5
10000151
102
{ACAD_REACTORS
330
10000150
102
}
330
10000150
100
AcDbXrecord
1000
KM1R
  0
XRECORD
  5
10000154
102
{ACAD_REACTORS
330
10000153
102
}
330
10000153
100
AcDbXrecord
1000
KM9R
  0
XRECORD
  5
10000157
102
{ACAD_REACTORS
330
10000156
102
}
330
10000156
100
AcDbXrecord
1000
KMFS
  0
XRECORD
  5
1000015A
102
{ACAD_REACTORS
330
10000159
102
}
330
10000159
100
AcDbXrecord
1000
KMNS
  0
XRECORD
  5
1000015D
102
{ACAD_REACTORS
330
1000015C
102
}
330
1000015C
100
AcDbXrecord
1000
KMVS
  0
XRECORD
  5
10000160
102
{ACAD_REACTORS
330
1000015F
102
}
330
1000015F
100
AcDbXrecord
1000
KMdS
  0
XRECORD
  5
10000163
102
{ACAD_REACTORS
330
10000162
102
}
330
10000162
100
AcDbXrecord
1000
KMlS
  0
XRECORD
  5
10000166
102
{ACAD_REACTORS
330
10000165
102
}
330
10000165
100
AcDbXrecord
1000
KMtS
  0
XRECORD
  5
10000169
102
{ACAD_REACTORS
330
10000168
102
}
330
10000168
100
AcDbXrecord
1000
KM1S
  0
XRECORD
  5
1000016C
102
{ACAD_REACTORS
330
1000016B
102
}
330
1000016B
100
AcDbXrecord
1000
KM9S
  0
XRECORD
  5
1000016F
102
{ACAD_REACTORS
330
1000016E
102
}
330
1000016E
100
AcDbXrecord
1000
KMFT
  0
XRECORD
  5
10000172
102
{ACAD_REACTORS
330
10000171
102
}
330
10000171
100
AcDbXrecord
1000
KMNT
  0
XRECORD
  5
10000175
102
{ACAD_REACTORS
330
10000174
102
}
330
10000174
100
AcDbXrecord
1000
KMVT
  0
XRECORD
  5
10000178
102
{ACAD_REACTORS
330
10000177
102
}
330
10000177
100
AcDbXrecord
1000
KMdT
  0
XRECORD
  5
1000017B
102
{ACAD_REACTORS
330
1000017A
102
}
330
1000017A
100
AcDbXrecord
1000
KMlT
  0
XRECORD
  5
1000017E
102
{ACAD_REACTORS
330
1000017D
102
}
330
1000017D
100
AcDbXrecord
1000
KMtT
  0
XRECORD
  5
10000181
102
{ACAD_REACTORS
330
10000180
102
}
330
10000180
100
AcDbXrecord
1000
KM1T
  0
XRECORD
  5
10000184
102
{ACAD_REACTORS
330
10000183
102
}
330
10000183
100
AcDbXrecord
1000
KM9T
  0
XRECORD
  5
10000187
102
{ACAD_REACTORS
330
10000186
102
}
330
10000186
100
AcDbXrecord
1000
KMVP
  0
XRECORD
  5
1000018A
102
{ACAD_REACTORS
330
10000189
102
}
330
10000189
100
AcDbXrecord
1000
KMtN
  0
XRECORD
  5
1000018D
102
{ACAD_REACTORS
330
1000018C
102
}
330
1000018C
100
AcDbXrecord
1000
KM1N
  0
XRECORD
  5
10000190
102
{ACAD_REACTORS
330
1000018F
102
}
330
1000018F
100
AcDbXrecord
1000
KM9N
  0
XRECORD
  5
10000193
102
{ACAD_REACTORS
330
10000192
102
}
330
10000192
100
AcDbXrecord
1000
KMFO
  0
XRECORD
  5
10000196
102
{ACAD_REACTORS
330
10000195
102
}
330
10000195
100
AcDbXrecord
1000
KMNO
  0
XRECORD
  5
10000199
102
{ACAD_REACTORS
330
10000198
102
}
330
10000198
100
AcDbXrecord
1000
KMVO
  0
XRECORD
  5
1000019C
102
{ACAD_REACTORS
330
1000019B
102
}
330
1000019B
100
AcDbXrecord
1000
KMdO
  0
XRECORD
  5
1000019F
102
{ACAD_REACTORS
330
1000019E
102
}
330
1000019E
100
AcDbXrecord
1000
KMlO
  0
XRECORD
  5
100001A2
102
{ACAD_REACTORS
330
100001A1
102
}
330
100001A1
100
AcDbXrecord
1000
KMtO
  0
XRECORD
  5
100001A5
102
{ACAD_REACTORS
330
100001A4
102
}
330
100001A4
100
AcDbXrecord
1000
KM1O
  0
XRECORD
  5
100001A8
102
{ACAD_REACTORS
330
100001A7
102
}
330
100001A7
100
AcDbXrecord
1000
KM9O
  0
XRECORD
  5
100001AB
102
{ACAD_REACTORS
330
100001AA
102
}
330
100001AA
100
AcDbXrecord
1000
KMFP
  0
XRECORD
  5
100001AE
102
{ACAD_REACTORS
330
100001AD
102
}
330
100001AD
100
AcDbXrecord
1000
KMNP
  0
XRECORD
  5
100001B1
102
{ACAD_REACTORS
330
100001B0
102
}
330
100001B0
100
AcDbXrecord
1000
KMlN
  0
XRECORD
  5
100001B4
102
{ACAD_REACTORS
330
100001B3
102
}
330
100001B3
100
AcDbXrecord
1000
KMFM
  0
XRECORD
  5
100001B7
102
{ACAD_REACTORS
330
100001B6
102
}
330
100001B6
100
AcDbXrecord
1000
KMNM
  0
XRECORD
  5
100001BA
102
{ACAD_REACTORS
330
100001B9
102
}
330
100001B9
100
AcDbXrecord
1000
KMVM
  0
XRECORD
  5
100001BD
102
{ACAD_REACTORS
330
100001BC
102
}
330
100001BC
100
AcDbXrecord
1000
KMdM
  0
XRECORD
  5
100001C0
102
{ACAD_REACTORS
330
100001BF
102
}
330
100001BF
100
AcDbXrecord
1000
KMlM
  0
XRECORD
  5
100001C3
102
{ACAD_REACTORS
330
100001C2
102
}
330
100001C2
100
AcDbXrecord
1000
KMtM
  0
XRECORD
  5
100001C6
102
{ACAD_REACTORS
330
100001C5
102
}
330
100001C5
100
AcDbXrecord
1000
KM1M
  0
XRECORD
  5
100001C9
102
{ACAD_REACTORS
330
100001C8
102
}
330
100001C8
100
AcDbXrecord
1000
KM9M
  0
XRECORD
  5
100001CC
102
{ACAD_REACTORS
330
100001CB
102
}
330
100001CB
100
AcDbXrecord
1000
KMFN
  0
XRECORD
  5
100001CF
102
{ACAD_REACTORS
330
100001CE
102
}
330
100001CE
100
AcDbXrecord
1000
KMNN
  0
XRECORD
  5
100001D2
102
{ACAD_REACTORS
330
100001D1
102
}
330
100001D1
100
AcDbXrecord
1000
KMVN
  0
XRECORD
  5
100001D5
102
{ACAD_REACTORS
330
100001D4
102
}
330
100001D4
100
AcDbXrecord
1000
KMdN
  0
XRECORD
  5
100001D8
102
{ACAD_REACTORS
330
100001D7
102
}
330
100001D7
100
AcDbXrecord
1000
KMdK
  0
XRECORD
  5
100001DB
102
{ACAD_REACTORS
330
100001DA
102
}
330
100001DA
100
AcDbXrecord
1000
KMNJ
  0
XRECORD
  5
100001DE
102
{ACAD_REACTORS
330
100001DD
102
}
330
100001DD
100
AcDbXrecord
1000
KMVJ
  0
XRECORD
  5
100001E1
102
{ACAD_REACTORS
330
100001E0
102
}
330
100001E0
100
AcDbXrecord
1000
KMdJ
  0
XRECORD
  5
100001E4
102
{ACAD_REACTORS
330
100001E3
102
}
330
100001E3
100
AcDbXrecord
1000
KMlJ
  0
XRECORD
  5
100001E7
102
{ACAD_REACTORS
330
100001E6
102
}
330
100001E6
100
AcDbXrecord
1000
KMtJ
  0
XRECORD
  5
100001EA
102
{ACAD_REACTORS
330
100001E9
102
}
330
100001E9
100
AcDbXrecord
1000
KM1J
  0
XRECORD
  5
100001ED
102
{ACAD_REACTORS
330
100001EC
102
}
330
100001EC
100
AcDbXrecord
1000
KM9J
  0
XRECORD
  5
100001F0
102
{ACAD_REACTORS
330
100001EF
102
}
330
100001EF
100
AcDbXrecord
1000
KMFK
  0
XRECORD
  5
100001F3
102
{ACAD_REACTORS
330
100001F2
102
}
330
100001F2
100
AcDbXrecord
1000
KMNK
  0
XRECORD
  5
100001F6
102
{ACAD_REACTORS
330
100001F5
102
}
330
100001F5
100
AcDbXrecord
1000
KMVK
  0
MATERIAL
  5
45
102
{ACAD_REACTORS
330
43
102
}
102
{ACAD_XDICTIONARY
360
1000022C
102
}
330
43
100
AcDbMaterial
  1
BYBLOCK
  0
MATERIAL
  5
44
102
{ACAD_REACTORS
330
43
102
}
102
{ACAD_XDICTIONARY
360
1000022A
102
}
330
43
100
AcDbMaterial
  1
BYLAYER
  0
MATERIAL
  5
46
102
{ACAD_REACTORS
330
43
102
}
102
{ACAD_XDICTIONARY
360
1000022E
102
}
330
43
100
AcDbMaterial
  1
GLOBAL
  0
ACAD_PROXY_OBJECT
  5
6C
102
{ACAD_REACTORS
330
6B
102
}
330
6B
100
AcDbProxyObject
 90
      499
 91
      505
 93
      610
310
40901902A4063FBFFFFFE0000000000000020400000000000020404214DD185B99185C990000000000000104090141901A00000000000004100000000000000041025764000000000000039000
340
14
340
0
340
11
340
0
 94
        0
1001
ACAD_MLEADERVER
1070
     2
  0
MLINESTYLE
  5
18
102
{ACAD_REACTORS
330
17
102
}
330
17
100
AcDbMlineStyle
  2
Standard
 70
     0
  3

 62
   256
 51
90.0
 52
90.0
 71
     2
 49
0.5
 62
   256
  6
BYLAYER
 49
-0.5
 62
   256
  6
BYLAYER
  0
ACAD_PROXY_OBJECT
  5
10000023
102
{ACAD_REACTORS
330
47
102
}
330
47
100
AcDbProxyObject
 90
      499
 91
      503
 93
      121
310
9053130303A310000000000001650100
  0
ACAD_PROXY_OBJECT
  5
1000001D
102
{ACAD_REACTORS
330
47
102
}
330
47
100
AcDbProxyObject
 90
      499
 91
      503
 93
      113
310
90431303A310000000000000910100
  0
ACAD_PROXY_OBJECT
  5
1000001E
102
{ACAD_REACTORS
330
47
102
}
330
47
100
AcDbProxyObject
 90
      499
 91
      503
 93
      113
310
90431323A310000000000000A10100
  0
ACAD_PROXY_OBJECT
  5
1000001F
102
{ACAD_REACTORS
330
47
102
}
330
47
100
AcDbProxyObject
 90
      499
 91
      503
 93
      113
310
90431363A310000000000000C10100
  0
ACAD_PROXY_OBJECT
  5
10000006
102
{ACAD_REACTORS
330
47
102
}
330
47
100
AcDbProxyObject
 90
      499
 91
      503
 93
       41
310
903313A31500
  0
ACAD_PROXY_OBJECT
  5
1000000D
102
{ACAD_REACTORS
330
47
102
}
330
47
100
AcDbProxyObject
 90
      499
 91
      503
 93
      113
310
904313A31304000000000000244000
  0
ACAD_PROXY_OBJECT
  5
10000016
102
{ACAD_REACTORS
330
47
102
}
330
47
100
AcDbProxyObject
 90
      499
 91
      503
 93
      121
310
905313A3130304000000000000594000
  0
ACAD_PROXY_OBJECT
  5
1000000E
102
{ACAD_REACTORS
330
47
102
}
330
47
100
AcDbProxyObject
 90
      499
 91
      503
 93
      113
310
904313A31324000000000000284000
  0
ACAD_PROXY_OBJECT
  5
1000000F
102
{ACAD_REACTORS
330
47
102
}
330
47
100
AcDbProxyObject
 90
      499
 91
      503
 93
      113
310
904313A31364000000000000304000
  0
ACAD_PROXY_OBJECT
  5
10000007
102
{ACAD_REACTORS
330
47
102
}
330
47
100
AcDbProxyObject
 90
      499
 91
      503
 93
      105
310
903313A324000000000000004000
  0
ACAD_PROXY_OBJECT
  5
10000010
102
{ACAD_REACTORS
330
47
102
}
330
47
100
AcDbProxyObject
 90
      499
 91
      503
 93
      113
310
904313A32304000000000000344000
  0
ACAD_PROXY_OBJECT
  5
10000011
102
{ACAD_REACTORS
330
47
102
}
330
47
100
AcDbProxyObject
 90
      499
 91
      503
 93
      113
310
904313A32354000000000000394000
  0
ACAD_PROXY_OBJECT
  5
10000008
102
{ACAD_REACTORS
330
47
102
}
330
47
100
AcDbProxyObject
 90
      499
 91
      503
 93
      105
310
903313A334000000000000084000
  0
ACAD_PROXY_OBJECT
  5
10000012
102
{ACAD_REACTORS
330
47
102
}
330
47
100
AcDbProxyObject
 90
      499
 91
      503
 93
      113
310
904313A33324000000000000404000
  0
ACAD_PROXY_OBJECT
  5
10000009
102
{ACAD_REACTORS
330
47
102
}
330
47
100
AcDbProxyObject
 90
      499
 91
      503
 93
      105
310
903313A344000000000000104000
  0
ACAD_PROXY_OBJECT
  5
10000013
102
{ACAD_REACTORS
330
47
102
}
330
47
100
AcDbProxyObject
 90
      499
 91
      503
 93
      113
310
904313A34304000000000000444000
  0
ACAD_PROXY_OBJECT
  5
1000000A
102
{ACAD_REACTORS
330
47
102
}
330
47
100
AcDbProxyObject
 90
      499
 91
      503
 93
      105
310
903313A354000000000000144000
  0
ACAD_PROXY_OBJECT
  5
10000014
102
{ACAD_REACTORS
330
47
102
}
330
47
100
AcDbProxyObject
 90
      499
 91
      503
 93
      113
310
904313A35304000000000000494000
  0
ACAD_PROXY_OBJECT
  5
1000000B
102
{ACAD_REACTORS
330
47
102
}
330
47
100
AcDbProxyObject
 90
      499
 91
      503
 93
      105
310
903313A364000000000000184000
  0
ACAD_PROXY_OBJECT
  5
1000000C
102
{ACAD_REACTORS
330
47
102
}
330
47
100
AcDbProxyObject
 90
      499
 91
      503
 93
      105
310
903313A384000000000000204000
  0
ACAD_PROXY_OBJECT
  5
10000015
102
{ACAD_REACTORS
330
47
102
}
330
47
100
AcDbProxyObject
 90
      499
 91
      503
 93
      113
310
904313A38304000000000000544000
  0
ACAD_PROXY_OBJECT
  5
10000020
102
{ACAD_REACTORS
330
47
102
}
330
47
100
AcDbProxyObject
 90
      499
 91
      503
 93
      113
310
90432303A310000000000000D10100
  0
ACAD_PROXY_OBJECT
  5
10000017
102
{ACAD_REACTORS
330
47
102
}
330
47
100
AcDbProxyObject
 90
      499
 91
      503
 93
      105
310
903323A310000000000000010100
  0
ACAD_PROXY_OBJECT
  5
10000021
102
{ACAD_REACTORS
330
47
102
}
330
47
100
AcDbProxyObject
 90
      499
 91
      503
 93
      113
310
90433323A310000000000001010100
  0
ACAD_PROXY_OBJECT
  5
10000018
102
{ACAD_REACTORS
330
47
102
}
330
47
100
AcDbProxyObject
 90
      499
 91
      503
 93
      105
310
903333A310000000000000210100
  0
ACAD_PROXY_OBJECT
  5
10000019
102
{ACAD_REACTORS
330
47
102
}
330
47
100
AcDbProxyObject
 90
      499
 91
      503
 93
      105
310
903343A310000000000000410100
  0
ACAD_PROXY_OBJECT
  5
10000022
102
{ACAD_REACTORS
330
47
102
}
330
47
100
AcDbProxyObject
 90
      499
 91
      503
 93
      113
310
90435303A310000000000001250100
  0
ACAD_PROXY_OBJECT
  5
1000001A
102
{ACAD_REACTORS
330
47
102
}
330
47
100
AcDbProxyObject
 90
      499
 91
      503
 93
      105
310
903353A310000000000000510100
  0
ACAD_PROXY_OBJECT
  5
1000001B
102
{ACAD_REACTORS
330
47
102
}
330
47
100
AcDbProxyObject
 90
      499
 91
      503
 93
      105
310
903363A310000000000000610100
  0
ACAD_PROXY_OBJECT
  5
1000001C
102
{ACAD_REACTORS
330
47
102
}
330
47
100
AcDbProxyObject
 90
      499
 91
      503
 93
      105
310
903383A310000000000000810100
  0
ACAD_PROXY_OBJECT
  5
2F
102
{ACAD_REACTORS
330
2A
102
}
330
2A
100
AcDbProxyObject
 90
      499
 91
      501
 93
      436
310
42CC9915DA5C99599C985B595049028333333333333E33F0000000000000F90107901411070040501600405405064090741402480A0340
1001
ACAD
1000
AcDbSavedByObjectVersion
1070
     0
  0
ACAD_PROXY_OBJECT
  5
32
102
{ACAD_REACTORS
330
2A
102
}
330
2A
100
AcDbProxyObject
 90
      499
 91
      501
 93
      388
310
4150985CDA58D07406404333333333333E33F0000000000000F90107A41107004050150841D405064090741402480A0350
1001
ACAD
1000
AcDbSavedByObjectVersion
1070
     0
  0
ACAD_PROXY_OBJECT
  5
36
102
{ACAD_REACTORS
330
2A
102
}
330
2A
100
AcDbProxyObject
 90
      499
 91
      501
 93
      428
310
42109C9A59DA1D195B90C409028333333333333E33F0000000000000F9010790141107004050150841D405064090741402480A029950
1001
ACAD
1000
AcDbSavedByObjectVersion
1070
     0
  0
ACAD_PROXY_OBJECT
  5
3A
102
{ACAD_REACTORS
330
2A
102
}
330
2A
100
AcDbProxyObject
 90
      499
 91
      501
 93
      452
310
42D0DBDB1BDC90DA185B99D95104090240C333333333333E33F0000000000000F90108901411070040501508421405064090741402480A0350
1001
ACAD
1000
AcDbSavedByObjectVersion
1070
     0
  0
ACAD_PROXY_OBJECT
  5
34
102
{ACAD_REACTORS
330
2A
102
}
330
2A
100
AcDbProxyObject
 90
      499
 91
      501
 93
      500
310
4290DBDB98D95C1D1D585B10940D028333333333333E33F0000000000000F90107902409070040501000000000018199010841D405064090740C02480A0340
1001
ACAD
1000
AcDbSavedByObjectVersion
1070
     0
  0
ACAD_PROXY_OBJECT
  5
35
102
{ACAD_REACTORS
330
2A
102
}
330
2A
100
AcDbProxyObject
 90
      499
 91
      501
 93
      412
310
40D11A5B50B409028333333333333E33F0000000000000F9010790141107004050150841D405064090741402480A02677FFFFFD0
1001
ACAD
1000
AcDbSavedByObjectVersion
1070
     0
  0
ACAD_PROXY_OBJECT
  5
3D
102
{ACAD_REACTORS
330
2A
102
}
330
2A
100
AcDbProxyObject
 90
      499
 91
      501
 93
      452
310
43115919D950DBDB1BDC93D999916409028333333333333E33F0000000000000F9010790141107004050150841D405064090741402480A0350
1001
ACAD
1000
AcDbSavedByObjectVersion
1070
     0
  0
ACAD_PROXY_OBJECT
  5
39
102
{ACAD_REACTORS
330
2A
102
}
330
2A
100
AcDbProxyObject
 90
      499
 91
      501
 93
      444
310
42D19858D95C185D1D195C9B90F409028333333333333E33F0000000000000F9010790141107004050150841D405064090741402480A0350
1001
ACAD
1000
AcDbSavedByObjectVersion
1070
     0
  0
ACAD_PROXY_OBJECT
  5
2B
102
{ACAD_REACTORS
330
2A
102
}
330
2A
100
AcDbProxyObject
 90
      499
 91
      501
 93
      380
310
41119B185D240901404333333333333E33F0000000000000F9010740A907004050150841D405064090741402480A1B50
1001
ACAD
1000
AcDbSavedByObjectVersion
1070
     0
  0
ACAD_PROXY_OBJECT
  5
2C
102
{ACAD_REACTORS
330
2A
102
}
330
2A
100
AcDbProxyObject
 90
      499
 91
      501
 93
      468
310
43519B185D15DA5D1A115919D95CD0140901404333333333333E33F0000000000000F90107409019070040501600405405064090741402480A1B50
1001
ACAD
1000
AcDbSavedByObjectVersion
1070
     0
  0
ACAD_PROXY_OBJECT
  5
2D
102
{ACAD_REACTORS
330
2A
102
}
330
2A
100
AcDbProxyObject
 90
      499
 91
      501
 93
      404
310
41D1DBDD5C985D5910240902404333333333333E33F0000000000000F9010740A9070040501641D405064090741402480A1B50
1001
ACAD
1000
AcDbSavedByObjectVersion
1070
     0
  0
ACAD_PROXY_OBJECT
  5
2E
102
{ACAD_REACTORS
330
2A
102
}
330
2A
100
AcDbProxyObject
 90
      499
 91
      501
 93
      492
310
4411DBDD5C985D5915DA5D1A115919D95CD0340902404333333333333E33F0000000000000F90107409019070040501600405405064090741402480A1B50
1001
ACAD
1000
AcDbSavedByObjectVersion
1070
     0
  0
ACAD_PROXY_OBJECT
  5
31
102
{ACAD_REACTORS
330
2A
102
}
330
2A
100
AcDbProxyObject
 90
      499
 91
      501
 93
      476
310
41921A5919195B90640502408333333333333E33F0000000000000F901079024090700405020000000000001110200405405064090740C02480A0340
1001
ACAD
1000
AcDbSavedByObjectVersion
1070
     0
  0
ACAD_PROXY_OBJECT
  5
3B
102
{ACAD_REACTORS
330
2A
102
}
330
2A
100
AcDbProxyObject
 90
      499
 91
      501
 93
      428
310
42529A5D1D195C93D999914409028333333333333E33F0000000000000F9010790141107004050150A41D405064090741402480A0350
1001
ACAD
1000
AcDbSavedByObjectVersion
1070
     0
  0
ACAD_PROXY_OBJECT
  5
38
102
{ACAD_REACTORS
330
2A
102
}
330
2A
100
AcDbProxyObject
 90
      499
 91
      501
 93
      444
310
42D31A5B995C185D1D195C9B90E409028333333333333E33F0000000000000F9010790141107004050750841D405064090741402483A0350
1001
ACAD
1000
AcDbSavedByObjectVersion
1070
     0
  0
ACAD_PROXY_OBJECT
  5
3C
102
{ACAD_REACTORS
330
2A
102
}
330
2A
100
AcDbProxyObject
 90
      499
 91
      501
 93
      444
310
42D3DD995C9A185B99D3D999915409028333333333333E33F0000000000000F9010790141107004050150941D405064090741402480A0350
1001
ACAD
1000
AcDbSavedByObjectVersion
1070
     0
  0
ACAD_PROXY_OBJECT
  5
33
102
{ACAD_REACTORS
330
2A
102
}
330
2A
100
AcDbProxyObject
 90
      499
 91
      501
 93
      428
310
425499585B1A5CDD1A58D08409038333333333333E33F0000000000000F9010740A907004050150800405405064090740C02480A1B40
1001
ACAD
1000
AcDbSavedByObjectVersion
1070
     0
  0
ACAD_PROXY_OBJECT
  5
42
102
{ACAD_REACTORS
330
2A
102
}
330
2A
100
AcDbProxyObject
 90
      499
 91
      501
 93
      420
310
4194DA1859195911B40902404333333333333E33F0000000000000F9010740A41107004050150800405405064090840C02480A0B40
1001
ACAD
1000
AcDbSavedByObjectVersion
1070
     0
  0
ACAD_PROXY_OBJECT
  5
41
102
{ACAD_REACTORS
330
2A
102
}
330
2A
100
AcDbProxyObject
 90
      499
 91
      501
 93
      516
310
4454DA18591959081DDA5D1A08195919D95CD1A40902404333333333333E33F0000000000000F901074090142907004050250800405405064090740C02480A0B40
1001
ACAD
1000
AcDbSavedByObjectVersion
1070
     0
  0
ACAD_PROXY_OBJECT
  5
3E
102
{ACAD_REACTORS
330
2A
102
}
330
2A
100
AcDbProxyObject
 90
      499
 91
      501
 93
      532
310
4394DA1859195CC81BD98811DC985E5174090240C333333333333E33F0000000000000F901079024090741D01000000000000111010841D405064090740C02480A0340
1001
ACAD
1000
AcDbSavedByObjectVersion
1070
     0
  0
ACAD_PROXY_OBJECT
  5
3F
102
{ACAD_REACTORS
330
2A
102
}
330
2A
100
AcDbProxyObject
 90
      499
 91
      501
 93
      476
310
41D4DAD95D18DA1E51840502408333333333333E33F0000000000000F901079024090741D01000000000000111010B41D405064090741802480A0340
1001
ACAD
1000
AcDbSavedByObjectVersion
1070
     0
  0
ACAD_PROXY_OBJECT
  5
37
102
{ACAD_REACTORS
330
2A
102
}
330
2A
100
AcDbProxyObject
 90
      499
 91
      501
 93
      412
310
41D51A1A58DAD95B90D409028333333333333E33F0000000000000F9010790141107004050150C41D405064090741402480A0350
1001
ACAD
1000
AcDbSavedByObjectVersion
1070
     0
  0
ACAD_PROXY_OBJECT
  5
30
102
{ACAD_REACTORS
330
2A
102
}
330
2A
100
AcDbProxyObject
 90
      499
 91
      501
 93
      420
310
4255DA5C99599C985B595059028333333333333E33F0000000000000F90107901411070040501600405405064090740C02480A0340
1001
ACAD
1000
AcDbSavedByObjectVersion
1070
     0
  0
ACAD_PROXY_OBJECT
  5
40
102
{ACAD_REACTORS
330
2A
102
}
330
2A
100
AcDbProxyObject
 90
      499
 91
      501
 93
      404
310
41560B54985E51940902404000000000000E03F0000000000000F9010740501907004050150841D405064090740C02480A1B40
1001
ACAD
1000
AcDbSavedByObjectVersion
1070
     0
  0
XRECORD
  5
10000203
102
{ACAD_REACTORS
330
100001F9
102
}
330
100001F9
100
AcDbXrecord
340
0
  0
XRECORD
  5
10000202
102
{ACAD_REACTORS
330
100001F9
102
}
330
100001F9
100
AcDbXrecord
 90
        0
  0
XRECORD
  5
10000219
102
{ACAD_REACTORS
330
100001F9
102
}
330
100001F9
100
AcDbXrecord
1000
DSTYLE
1002
{
1070
   340
340
11
1002
}
  0
XRECORD
  5
10000204
102
{ACAD_REACTORS
330
100001F9
102
}
330
100001F9
100
AcDbXrecord
  1
{6471b9b6-3966-3166-6364-307265707272}
  0
XRECORD
  5
100001FC
102
{ACAD_REACTORS
330
100001F9
102
}
330
100001F9
100
AcDbXrecord
  1

  0
XRECORD
  5
10000201
102
{ACAD_REACTORS
330
100001F9
102
}
330
100001F9
100
AcDbXrecord
 90
        4
  0
XRECORD
  5
100001FE
102
{ACAD_REACTORS
330
100001F9
102
}
330
100001F9
100
AcDbXrecord
340
1A
  0
XRECORD
  5
10000200
102
{ACAD_REACTORS
330
100001F9
102
}
330
100001F9
100
AcDbXrecord
 90
    10781
  0
XRECORD
  5
100001FF
102
{ACAD_REACTORS
330
100001F9
102
}
330
100001F9
100
AcDbXrecord
340
19
  0
XRECORD
  5
10000206
102
{ACAD_REACTORS
330
100001F9
102
}
330
100001F9
100
AcDbXrecord
 40
0.0
  0
XRECORD
  5
10000209
102
{ACAD_REACTORS
330
100001F9
102
}
330
100001F9
100
AcDbXrecord
340
0
  0
XRECORD
  5
1000020F
102
{ACAD_REACTORS
330
100001F9
102
}
330
100001F9
100
AcDbXrecord
 10
0.0
 20
0.0
 30
0.0
  0
XRECORD
  5
1000020B
102
{ACAD_REACTORS
330
100001F9
102
}
330
100001F9
100
AcDbXrecord
 10
0.0
 20
0.0
 30
0.0
  0
XRECORD
  5
1000020E
102
{ACAD_REACTORS
330
100001F9
102
}
330
100001F9
100
AcDbXrecord
 10
0.0
 20
0.0
 30
0.0
  0
XRECORD
  5
1000020C
102
{ACAD_REACTORS
330
100001F9
102
}
330
100001F9
100
AcDbXrecord
 10
0.0
 20
0.0
 30
0.0
  0
XRECORD
  5
1000020D
102
{ACAD_REACTORS
330
100001F9
102
}
330
100001F9
100
AcDbXrecord
 10
0.0
 20
0.0
 30
0.0
  0
XRECORD
  5
1000020A
102
{ACAD_REACTORS
330
100001F9
102
}
330
100001F9
100
AcDbXrecord
 10
0.0
 20
0.0
 30
0.0
  0
XRECORD
  5
10000207
102
{ACAD_REACTORS
330
100001F9
102
}
330
100001F9
100
AcDbXrecord
340
0
  0
XRECORD
  5
10000208
102
{ACAD_REACTORS
330
100001F9
102
}
330
100001F9
100
AcDbXrecord
 70
     0
  0
XRECORD
  5
100001FD
102
{ACAD_REACTORS
330
100001F9
102
}
330
100001F9
100
AcDbXrecord
  1

  0
XRECORD
  5
100001FA
102
{ACAD_REACTORS
330
100001F9
102
}
330
100001F9
100
AcDbXrecord
 90
        1
  0
XRECORD
  5
100001FB
102
{ACAD_REACTORS
330
100001F9
102
}
330
100001F9
100
AcDbXrecord
 90
       70
  0
XRECORD
  5
10000212
102
{ACAD_REACTORS
330
100001F9
102
}
330
100001F9
100
AcDbXrecord
340
0
  0
XRECORD
  5
10000218
102
{ACAD_REACTORS
330
100001F9
102
}
330
100001F9
100
AcDbXrecord
 10
0.0
 20
0.0
 30
0.0
  0
XRECORD
  5
10000214
102
{ACAD_REACTORS
330
100001F9
102
}
330
100001F9
100
AcDbXrecord
 10
0.0
 20
0.0
 30
0.0
  0
XRECORD
  5
10000217
102
{ACAD_REACTORS
330
100001F9
102
}
330
100001F9
100
AcDbXrecord
 10
0.0
 20
0.0
 30
0.0
  0
XRECORD
  5
10000215
102
{ACAD_REACTORS
330
100001F9
102
}
330
100001F9
100
AcDbXrecord
 10
0.0
 20
0.0
 30
0.0
  0
XRECORD
  5
10000216
102
{ACAD_REACTORS
330
100001F9
102
}
330
100001F9
100
AcDbXrecord
 10
0.0
 20
0.0
 30
0.0
  0
XRECORD
  5
10000213
102
{ACAD_REACTORS
330
100001F9
102
}
330
100001F9
100
AcDbXrecord
 10
0.0
 20
0.0
 30
0.0
  0
XRECORD
  5
10000210
102
{ACAD_REACTORS
330
100001F9
102
}
330
100001F9
100
AcDbXrecord
340
0
  0
XRECORD
  5
10000211
102
{ACAD_REACTORS
330
100001F9
102
}
330
100001F9
100
AcDbXrecord
 70
     0
  0
XRECORD
  5
10000205
102
{ACAD_REACTORS
330
100001F9
102
}
330
100001F9
100
AcDbXrecord
  1
{FAEB1C32-E019-11D5-929B-00C0DF256EC4}
  0
DICTIONARYVAR
  5
10000228
102
{ACAD_REACTORS
330
1000021A
102
}
330
1000021A
100
DictionaryVariables
280
     0
  1
1:1
  0
DICTIONARYVAR
  5
10000221
102
{ACAD_REACTORS
330
1000021A
102
}
330
1000021A
100
DictionaryVariables
280
     0
  1
3.500000
  0
DICTIONARYVAR
  5
10000222
102
{ACAD_REACTORS
330
1000021A
102
}
330
1000021A
100
DictionaryVariables
280
     0
  1
acadiso.lin
  0
DICTIONARYVAR
  5
1000021C
102
{ACAD_REACTORS
330
1000021A
102
}
330
1000021A
100
DictionaryVariables
280
     0
  1
Standard
  0
DICTIONARYVAR
  5
1000021B
102
{ACAD_REACTORS
330
1000021A
102
}
330
1000021A
100
DictionaryVariables
280
     0
  1
Standard
  0
DICTIONARYVAR
  5
10000223
102
{ACAD_REACTORS
330
1000021A
102
}
330
1000021A
100
DictionaryVariables
280
     0
  1
2
  0
DICTIONARYVAR
  5
10000224
102
{ACAD_REACTORS
330
1000021A
102
}
330
1000021A
100
DictionaryVariables
280
     0
  1
1
  0
DICTIONARYVAR
  5
10000229
102
{ACAD_REACTORS
330
1000021A
102
}
330
1000021A
100
DictionaryVariables
280
     0
  1
1
  0
DICTIONARYVAR
  5
1000021E
102
{ACAD_REACTORS
330
1000021A
102
}
330
1000021A
100
DictionaryVariables
280
     0
  1
80.000000
  0
DICTIONARYVAR
  5
1000021D
102
{ACAD_REACTORS
330
1000021A
102
}
330
1000021A
100
DictionaryVariables
280
     0
  1
5.000000
  0
XRECORD
  5
10000003
102
{ACAD_REACTORS
330
10000001
102
}
330
10000001
100
AcDbXrecord
 70
     4
  0
XRECORD
  5
10000002
102
{ACAD_REACTORS
330
10000001
102
}
330
10000001
100
AcDbXrecord
1040
89.0
  0
ACAD_PROXY_OBJECT
  5
10000005
102
{ACAD_REACTORS
330
10000001
102
}
330
10000001
100
AcDbProxyObject
 90
      499
 91
      509
 93
       34
310
40C8804040
  0
DICTIONARY
  5
1000022C
330
45
100
AcDbDictionary
280
     1
  3
ACAD_XREC_ROUNDTRIP
360
1000022D
  0
DICTIONARY
  5
1000022A
330
44
100
AcDbDictionary
280
     1
  3
ACAD_XREC_ROUNDTRIP
360
1000022B
  0
DICTIONARY
  5
1000022E
330
46
100
AcDbDictionary
280
     1
  3
ACAD_XREC_ROUNDTRIP
360
1000022F
  0
XRECORD
  5
1000022D
102
{ACAD_REACTORS
330
1000022C
102
}
330
1000022C
100
AcDbXrecord
102
MATERIAL
148
0.0
149
0.0
149
0.0
 93
        0
 94
      127
282
     0
 72
     1
 77
     1
171
     1
175
     1
179
     1
273
     0
  0
XRECORD
  5
1000022B
102
{ACAD_REACTORS
330
1000022A
102
}
330
1000022A
100
AcDbXrecord
102
MATERIAL
148
0.0
149
0.0
149
0.0
 93
        0
 94
      127
282
     0
 72
     1
 77
     1
171
     1
175
     1
179
     1
273
     0
  0
XRECORD
  5
1000022F
102
{ACAD_REACTORS
330
1000022E
102
}
330
1000022E
100
AcDbXrecord
102
MATERIAL
148
0.0
149
0.0
149
0.0
 93
        0
 94
      127
282
     0
 72
     1
 77
     1
171
     1
175
     1
179
     1
273
     0
  0
ENDSEC
  0
EOF
